<?xml version="1.0" encoding="UTF-8"?>
<svg xmlns="http://www.w3.org/2000/svg" viewBox="0 0 32.6 20.6" role="img" aria-label="Remix runner loading animation">
  <style>
    .dot { fill: #ffffff; }
    .grid-dot { fill: #ffffff; opacity: 0.16; }
      .frame { opacity: 0; animation: 690ms steps(1, end) infinite; }
      .frame-0 { animation-name: f0; }
      .frame-1 { animation-name: f1; }
      .frame-2 { animation-name: f2; }
      .frame-3 { animation-name: f3; }
      .frame-4 { animation-name: f4; }
      .frame-5 { animation-name: f5; }
      @keyframes f0 { 0%, 16.667% { opacity: 1; } 16.668%, 100% { opacity: 0; } }
      @keyframes f1 { 0%, 16.667% { opacity: 0; } 16.668%, 33.333% { opacity: 1; } 33.334%, 100% { opacity: 0; } }
      @keyframes f2 { 0%, 33.333% { opacity: 0; } 33.334%, 50.000% { opacity: 1; } 50.001%, 100% { opacity: 0; } }
      @keyframes f3 { 0%, 50.000% { opacity: 0; } 50.001%, 66.667% { opacity: 1; } 66.668%, 100% { opacity: 0; } }
      @keyframes f4 { 0%, 66.667% { opacity: 0; } 66.668%, 83.333% { opacity: 1; } 83.334%, 100% { opacity: 0; } }
      @keyframes f5 { 0%, 83.333% { opacity: 0; } 83.334%, 100% { opacity: 1; } }
  </style>
  
  <g class="frame frame-0" aria-hidden="true"><circle class="dot" cx="14.80" cy="0.80" r="0.4896" /><circle class="dot" cx="15.80" cy="0.80" r="0.4896" /><circle class="dot" cx="16.80" cy="0.80" r="0.4896" /><circle class="dot" cx="12.80" cy="1.80" r="0.4896" /><circle class="dot" cx="15.80" cy="1.80" r="0.4896" /><circle class="dot" cx="16.80" cy="1.80" r="0.4896" /><circle class="dot" cx="17.80" cy="1.80" r="0.4896" /><circle class="dot" cx="14.80" cy="2.80" r="0.4896" /><circle class="dot" cx="15.80" cy="2.80" r="0.4896" /><circle class="dot" cx="16.80" cy="2.80" r="0.4896" /><circle class="dot" cx="17.80" cy="2.80" r="0.4896" /><circle class="dot" cx="22.80" cy="2.80" r="0.4896" /><circle class="dot" cx="23.80" cy="2.80" r="0.4896" /><circle class="dot" cx="9.80" cy="3.80" r="0.4896" /><circle class="dot" cx="12.80" cy="3.80" r="0.4896" /><circle class="dot" cx="13.80" cy="3.80" r="0.4896" /><circle class="dot" cx="14.80" cy="3.80" r="0.4896" /><circle class="dot" cx="15.80" cy="3.80" r="0.4896" /><circle class="dot" cx="16.80" cy="3.80" r="0.4896" /><circle class="dot" cx="17.80" cy="3.80" r="0.4896" /><circle class="dot" cx="18.80" cy="3.80" r="0.4896" /><circle class="dot" cx="19.80" cy="3.80" r="0.4896" /><circle class="dot" cx="21.80" cy="3.80" r="0.4896" /><circle class="dot" cx="22.80" cy="3.80" r="0.4896" /><circle class="dot" cx="23.80" cy="3.80" r="0.4896" /><circle class="dot" cx="11.80" cy="4.80" r="0.4896" /><circle class="dot" cx="12.80" cy="4.80" r="0.4896" /><circle class="dot" cx="13.80" cy="4.80" r="0.4896" /><circle class="dot" cx="14.80" cy="4.80" r="0.4896" /><circle class="dot" cx="15.80" cy="4.80" r="0.4896" /><circle class="dot" cx="16.80" cy="4.80" r="0.4896" /><circle class="dot" cx="17.80" cy="4.80" r="0.4896" /><circle class="dot" cx="18.80" cy="4.80" r="0.4896" /><circle class="dot" cx="19.80" cy="4.80" r="0.4896" /><circle class="dot" cx="20.80" cy="4.80" r="0.4896" /><circle class="dot" cx="21.80" cy="4.80" r="0.4896" /><circle class="dot" cx="22.80" cy="4.80" r="0.4896" /><circle class="dot" cx="10.80" cy="5.80" r="0.4896" /><circle class="dot" cx="11.80" cy="5.80" r="0.4896" /><circle class="dot" cx="12.80" cy="5.80" r="0.4896" /><circle class="dot" cx="14.80" cy="5.80" r="0.4896" /><circle class="dot" cx="15.80" cy="5.80" r="0.4896" /><circle class="dot" cx="16.80" cy="5.80" r="0.4896" /><circle class="dot" cx="17.80" cy="5.80" r="0.4896" /><circle class="dot" cx="18.80" cy="5.80" r="0.4896" /><circle class="dot" cx="19.80" cy="5.80" r="0.4896" /><circle class="dot" cx="20.80" cy="5.80" r="0.4896" /><circle class="dot" cx="11.80" cy="6.80" r="0.4896" /><circle class="dot" cx="12.80" cy="6.80" r="0.4896" /><circle class="dot" cx="13.80" cy="6.80" r="0.4896" /><circle class="dot" cx="14.80" cy="6.80" r="0.4896" /><circle class="dot" cx="15.80" cy="6.80" r="0.4896" /><circle class="dot" cx="16.80" cy="6.80" r="0.4896" /><circle class="dot" cx="17.80" cy="6.80" r="0.4896" /><circle class="dot" cx="12.80" cy="7.80" r="0.4896" /><circle class="dot" cx="13.80" cy="7.80" r="0.4896" /><circle class="dot" cx="14.80" cy="7.80" r="0.4896" /><circle class="dot" cx="15.80" cy="7.80" r="0.4896" /><circle class="dot" cx="16.80" cy="7.80" r="0.4896" /><circle class="dot" cx="17.80" cy="7.80" r="0.4896" /><circle class="dot" cx="18.80" cy="7.80" r="0.4896" /><circle class="dot" cx="19.80" cy="7.80" r="0.4896" /><circle class="dot" cx="13.80" cy="8.80" r="0.4896" /><circle class="dot" cx="14.80" cy="8.80" r="0.4896" /><circle class="dot" cx="15.80" cy="8.80" r="0.4896" /><circle class="dot" cx="16.80" cy="8.80" r="0.4896" /><circle class="dot" cx="17.80" cy="8.80" r="0.4896" /><circle class="dot" cx="18.80" cy="8.80" r="0.4896" /><circle class="dot" cx="19.80" cy="8.80" r="0.4896" /><circle class="dot" cx="20.80" cy="8.80" r="0.4896" /><circle class="dot" cx="13.80" cy="9.80" r="0.4896" /><circle class="dot" cx="14.80" cy="9.80" r="0.4896" /><circle class="dot" cx="15.80" cy="9.80" r="0.4896" /><circle class="dot" cx="16.80" cy="9.80" r="0.4896" /><circle class="dot" cx="17.80" cy="9.80" r="0.4896" /><circle class="dot" cx="18.80" cy="9.80" r="0.4896" /><circle class="dot" cx="19.80" cy="9.80" r="0.4896" /><circle class="dot" cx="20.80" cy="9.80" r="0.4896" /><circle class="dot" cx="21.80" cy="9.80" r="0.4896" /><circle class="dot" cx="22.80" cy="9.80" r="0.4896" /><circle class="dot" cx="2.80" cy="10.80" r="0.4896" /><circle class="dot" cx="12.80" cy="10.80" r="0.4896" /><circle class="dot" cx="13.80" cy="10.80" r="0.4896" /><circle class="dot" cx="14.80" cy="10.80" r="0.4896" /><circle class="dot" cx="15.80" cy="10.80" r="0.4896" /><circle class="dot" cx="16.80" cy="10.80" r="0.4896" /><circle class="dot" cx="19.80" cy="10.80" r="0.4896" /><circle class="dot" cx="20.80" cy="10.80" r="0.4896" /><circle class="dot" cx="21.80" cy="10.80" r="0.4896" /><circle class="dot" cx="22.80" cy="10.80" r="0.4896" /><circle class="dot" cx="23.80" cy="10.80" r="0.4896" /><circle class="dot" cx="24.80" cy="10.80" r="0.4896" /><circle class="dot" cx="1.80" cy="11.80" r="0.4896" /><circle class="dot" cx="2.80" cy="11.80" r="0.4896" /><circle class="dot" cx="3.80" cy="11.80" r="0.4896" /><circle class="dot" cx="4.80" cy="11.80" r="0.4896" /><circle class="dot" cx="5.80" cy="11.80" r="0.4896" /><circle class="dot" cx="6.80" cy="11.80" r="0.4896" /><circle class="dot" cx="11.80" cy="11.80" r="0.4896" /><circle class="dot" cx="12.80" cy="11.80" r="0.4896" /><circle class="dot" cx="13.80" cy="11.80" r="0.4896" /><circle class="dot" cx="14.80" cy="11.80" r="0.4896" /><circle class="dot" cx="15.80" cy="11.80" r="0.4896" /><circle class="dot" cx="21.80" cy="11.80" r="0.4896" /><circle class="dot" cx="22.80" cy="11.80" r="0.4896" /><circle class="dot" cx="23.80" cy="11.80" r="0.4896" /><circle class="dot" cx="24.80" cy="11.80" r="0.4896" /><circle class="dot" cx="25.80" cy="11.80" r="0.4896" /><circle class="dot" cx="0.80" cy="12.80" r="0.4896" /><circle class="dot" cx="1.80" cy="12.80" r="0.4896" /><circle class="dot" cx="2.80" cy="12.80" r="0.4896" /><circle class="dot" cx="3.80" cy="12.80" r="0.4896" /><circle class="dot" cx="4.80" cy="12.80" r="0.4896" /><circle class="dot" cx="5.80" cy="12.80" r="0.4896" /><circle class="dot" cx="6.80" cy="12.80" r="0.4896" /><circle class="dot" cx="7.80" cy="12.80" r="0.4896" /><circle class="dot" cx="8.80" cy="12.80" r="0.4896" /><circle class="dot" cx="9.80" cy="12.80" r="0.4896" /><circle class="dot" cx="10.80" cy="12.80" r="0.4896" /><circle class="dot" cx="11.80" cy="12.80" r="0.4896" /><circle class="dot" cx="12.80" cy="12.80" r="0.4896" /><circle class="dot" cx="13.80" cy="12.80" r="0.4896" /><circle class="dot" cx="23.80" cy="12.80" r="0.4896" /><circle class="dot" cx="24.80" cy="12.80" r="0.4896" /><circle class="dot" cx="25.80" cy="12.80" r="0.4896" /><circle class="dot" cx="26.80" cy="12.80" r="0.4896" /><circle class="dot" cx="0.80" cy="13.80" r="0.4896" /><circle class="dot" cx="1.80" cy="13.80" r="0.4896" /><circle class="dot" cx="2.80" cy="13.80" r="0.4896" /><circle class="dot" cx="3.80" cy="13.80" r="0.4896" /><circle class="dot" cx="4.80" cy="13.80" r="0.4896" /><circle class="dot" cx="5.80" cy="13.80" r="0.4896" /><circle class="dot" cx="6.80" cy="13.80" r="0.4896" /><circle class="dot" cx="7.80" cy="13.80" r="0.4896" /><circle class="dot" cx="8.80" cy="13.80" r="0.4896" /><circle class="dot" cx="9.80" cy="13.80" r="0.4896" /><circle class="dot" cx="10.80" cy="13.80" r="0.4896" /><circle class="dot" cx="11.80" cy="13.80" r="0.4896" /><circle class="dot" cx="12.80" cy="13.80" r="0.4896" /><circle class="dot" cx="23.80" cy="13.80" r="0.4896" /><circle class="dot" cx="24.80" cy="13.80" r="0.4896" /><circle class="dot" cx="25.80" cy="13.80" r="0.4896" /><circle class="dot" cx="26.80" cy="13.80" r="0.4896" /><circle class="dot" cx="27.80" cy="13.80" r="0.4896" /><circle class="dot" cx="0.80" cy="14.80" r="0.4896" /><circle class="dot" cx="1.80" cy="14.80" r="0.4896" /><circle class="dot" cx="4.80" cy="14.80" r="0.4896" /><circle class="dot" cx="5.80" cy="14.80" r="0.4896" /><circle class="dot" cx="6.80" cy="14.80" r="0.4896" /><circle class="dot" cx="7.80" cy="14.80" r="0.4896" /><circle class="dot" cx="8.80" cy="14.80" r="0.4896" /><circle class="dot" cx="9.80" cy="14.80" r="0.4896" /><circle class="dot" cx="10.80" cy="14.80" r="0.4896" /><circle class="dot" cx="11.80" cy="14.80" r="0.4896" /><circle class="dot" cx="24.80" cy="14.80" r="0.4896" /><circle class="dot" cx="25.80" cy="14.80" r="0.4896" /><circle class="dot" cx="26.80" cy="14.80" r="0.4896" /><circle class="dot" cx="27.80" cy="14.80" r="0.4896" /><circle class="dot" cx="28.80" cy="14.80" r="0.4896" /><circle class="dot" cx="30.80" cy="14.80" r="0.4896" /><circle class="dot" cx="31.80" cy="14.80" r="0.4896" /><circle class="dot" cx="0.80" cy="15.80" r="0.4896" /><circle class="dot" cx="1.80" cy="15.80" r="0.4896" /><circle class="dot" cx="25.80" cy="15.80" r="0.4896" /><circle class="dot" cx="26.80" cy="15.80" r="0.4896" /><circle class="dot" cx="27.80" cy="15.80" r="0.4896" /><circle class="dot" cx="28.80" cy="15.80" r="0.4896" /><circle class="dot" cx="29.80" cy="15.80" r="0.4896" /><circle class="dot" cx="30.80" cy="15.80" r="0.4896" /><circle class="dot" cx="31.80" cy="15.80" r="0.4896" /><circle class="dot" cx="26.80" cy="16.80" r="0.4896" /><circle class="dot" cx="27.80" cy="16.80" r="0.4896" /><circle class="dot" cx="28.80" cy="16.80" r="0.4896" /><circle class="dot" cx="29.80" cy="16.80" r="0.4896" /><circle class="dot" cx="30.80" cy="16.80" r="0.4896" /><circle class="dot" cx="26.80" cy="17.80" r="0.4896" /><circle class="dot" cx="27.80" cy="17.80" r="0.4896" /><circle class="dot" cx="28.80" cy="17.80" r="0.4896" /><circle class="dot" cx="29.80" cy="17.80" r="0.4896" /><circle class="dot" cx="27.80" cy="18.80" r="0.4896" /><circle class="dot" cx="28.80" cy="18.80" r="0.4896" /></g><g class="frame frame-1" aria-hidden="true"><circle class="dot" cx="14.80" cy="1.80" r="0.4896" /><circle class="dot" cx="15.80" cy="1.80" r="0.4896" /><circle class="dot" cx="16.80" cy="1.80" r="0.4896" /><circle class="dot" cx="11.80" cy="2.80" r="0.4896" /><circle class="dot" cx="15.80" cy="2.80" r="0.4896" /><circle class="dot" cx="16.80" cy="2.80" r="0.4896" /><circle class="dot" cx="17.80" cy="2.80" r="0.4896" /><circle class="dot" cx="14.80" cy="3.80" r="0.4896" /><circle class="dot" cx="15.80" cy="3.80" r="0.4896" /><circle class="dot" cx="16.80" cy="3.80" r="0.4896" /><circle class="dot" cx="17.80" cy="3.80" r="0.4896" /><circle class="dot" cx="9.80" cy="4.80" r="0.4896" /><circle class="dot" cx="13.80" cy="4.80" r="0.4896" /><circle class="dot" cx="14.80" cy="4.80" r="0.4896" /><circle class="dot" cx="15.80" cy="4.80" r="0.4896" /><circle class="dot" cx="16.80" cy="4.80" r="0.4896" /><circle class="dot" cx="17.80" cy="4.80" r="0.4896" /><circle class="dot" cx="18.80" cy="4.80" r="0.4896" /><circle class="dot" cx="21.80" cy="4.80" r="0.4896" /><circle class="dot" cx="22.80" cy="4.80" r="0.4896" /><circle class="dot" cx="12.80" cy="5.80" r="0.4896" /><circle class="dot" cx="13.80" cy="5.80" r="0.4896" /><circle class="dot" cx="14.80" cy="5.80" r="0.4896" /><circle class="dot" cx="15.80" cy="5.80" r="0.4896" /><circle class="dot" cx="16.80" cy="5.80" r="0.4896" /><circle class="dot" cx="17.80" cy="5.80" r="0.4896" /><circle class="dot" cx="18.80" cy="5.80" r="0.4896" /><circle class="dot" cx="19.80" cy="5.80" r="0.4896" /><circle class="dot" cx="20.80" cy="5.80" r="0.4896" /><circle class="dot" cx="21.80" cy="5.80" r="0.4896" /><circle class="dot" cx="22.80" cy="5.80" r="0.4896" /><circle class="dot" cx="11.80" cy="6.80" r="0.4896" /><circle class="dot" cx="12.80" cy="6.80" r="0.4896" /><circle class="dot" cx="13.80" cy="6.80" r="0.4896" /><circle class="dot" cx="15.80" cy="6.80" r="0.4896" /><circle class="dot" cx="16.80" cy="6.80" r="0.4896" /><circle class="dot" cx="17.80" cy="6.80" r="0.4896" /><circle class="dot" cx="18.80" cy="6.80" r="0.4896" /><circle class="dot" cx="19.80" cy="6.80" r="0.4896" /><circle class="dot" cx="20.80" cy="6.80" r="0.4896" /><circle class="dot" cx="21.80" cy="6.80" r="0.4896" /><circle class="dot" cx="12.80" cy="7.80" r="0.4896" /><circle class="dot" cx="13.80" cy="7.80" r="0.4896" /><circle class="dot" cx="14.80" cy="7.80" r="0.4896" /><circle class="dot" cx="15.80" cy="7.80" r="0.4896" /><circle class="dot" cx="16.80" cy="7.80" r="0.4896" /><circle class="dot" cx="17.80" cy="7.80" r="0.4896" /><circle class="dot" cx="13.80" cy="8.80" r="0.4896" /><circle class="dot" cx="14.80" cy="8.80" r="0.4896" /><circle class="dot" cx="15.80" cy="8.80" r="0.4896" /><circle class="dot" cx="16.80" cy="8.80" r="0.4896" /><circle class="dot" cx="17.80" cy="8.80" r="0.4896" /><circle class="dot" cx="18.80" cy="8.80" r="0.4896" /><circle class="dot" cx="6.80" cy="9.80" r="0.4896" /><circle class="dot" cx="13.80" cy="9.80" r="0.4896" /><circle class="dot" cx="14.80" cy="9.80" r="0.4896" /><circle class="dot" cx="15.80" cy="9.80" r="0.4896" /><circle class="dot" cx="16.80" cy="9.80" r="0.4896" /><circle class="dot" cx="17.80" cy="9.80" r="0.4896" /><circle class="dot" cx="18.80" cy="9.80" r="0.4896" /><circle class="dot" cx="19.80" cy="9.80" r="0.4896" /><circle class="dot" cx="5.80" cy="10.80" r="0.4896" /><circle class="dot" cx="6.80" cy="10.80" r="0.4896" /><circle class="dot" cx="7.80" cy="10.80" r="0.4896" /><circle class="dot" cx="13.80" cy="10.80" r="0.4896" /><circle class="dot" cx="14.80" cy="10.80" r="0.4896" /><circle class="dot" cx="15.80" cy="10.80" r="0.4896" /><circle class="dot" cx="16.80" cy="10.80" r="0.4896" /><circle class="dot" cx="17.80" cy="10.80" r="0.4896" /><circle class="dot" cx="18.80" cy="10.80" r="0.4896" /><circle class="dot" cx="19.80" cy="10.80" r="0.4896" /><circle class="dot" cx="4.80" cy="11.80" r="0.4896" /><circle class="dot" cx="5.80" cy="11.80" r="0.4896" /><circle class="dot" cx="6.80" cy="11.80" r="0.4896" /><circle class="dot" cx="7.80" cy="11.80" r="0.4896" /><circle class="dot" cx="8.80" cy="11.80" r="0.4896" /><circle class="dot" cx="12.80" cy="11.80" r="0.4896" /><circle class="dot" cx="13.80" cy="11.80" r="0.4896" /><circle class="dot" cx="14.80" cy="11.80" r="0.4896" /><circle class="dot" cx="15.80" cy="11.80" r="0.4896" /><circle class="dot" cx="16.80" cy="11.80" r="0.4896" /><circle class="dot" cx="17.80" cy="11.80" r="0.4896" /><circle class="dot" cx="18.80" cy="11.80" r="0.4896" /><circle class="dot" cx="19.80" cy="11.80" r="0.4896" /><circle class="dot" cx="20.80" cy="11.80" r="0.4896" /><circle class="dot" cx="3.80" cy="12.80" r="0.4896" /><circle class="dot" cx="4.80" cy="12.80" r="0.4896" /><circle class="dot" cx="5.80" cy="12.80" r="0.4896" /><circle class="dot" cx="6.80" cy="12.80" r="0.4896" /><circle class="dot" cx="7.80" cy="12.80" r="0.4896" /><circle class="dot" cx="8.80" cy="12.80" r="0.4896" /><circle class="dot" cx="9.80" cy="12.80" r="0.4896" /><circle class="dot" cx="11.80" cy="12.80" r="0.4896" /><circle class="dot" cx="12.80" cy="12.80" r="0.4896" /><circle class="dot" cx="13.80" cy="12.80" r="0.4896" /><circle class="dot" cx="14.80" cy="12.80" r="0.4896" /><circle class="dot" cx="15.80" cy="12.80" r="0.4896" /><circle class="dot" cx="18.80" cy="12.80" r="0.4896" /><circle class="dot" cx="19.80" cy="12.80" r="0.4896" /><circle class="dot" cx="20.80" cy="12.80" r="0.4896" /><circle class="dot" cx="21.80" cy="12.80" r="0.4896" /><circle class="dot" cx="6.80" cy="13.80" r="0.4896" /><circle class="dot" cx="7.80" cy="13.80" r="0.4896" /><circle class="dot" cx="8.80" cy="13.80" r="0.4896" /><circle class="dot" cx="9.80" cy="13.80" r="0.4896" /><circle class="dot" cx="10.80" cy="13.80" r="0.4896" /><circle class="dot" cx="11.80" cy="13.80" r="0.4896" /><circle class="dot" cx="12.80" cy="13.80" r="0.4896" /><circle class="dot" cx="13.80" cy="13.80" r="0.4896" /><circle class="dot" cx="19.80" cy="13.80" r="0.4896" /><circle class="dot" cx="20.80" cy="13.80" r="0.4896" /><circle class="dot" cx="21.80" cy="13.80" r="0.4896" /><circle class="dot" cx="22.80" cy="13.80" r="0.4896" /><circle class="dot" cx="7.80" cy="14.80" r="0.4896" /><circle class="dot" cx="8.80" cy="14.80" r="0.4896" /><circle class="dot" cx="9.80" cy="14.80" r="0.4896" /><circle class="dot" cx="10.80" cy="14.80" r="0.4896" /><circle class="dot" cx="11.80" cy="14.80" r="0.4896" /><circle class="dot" cx="12.80" cy="14.80" r="0.4896" /><circle class="dot" cx="20.80" cy="14.80" r="0.4896" /><circle class="dot" cx="21.80" cy="14.80" r="0.4896" /><circle class="dot" cx="22.80" cy="14.80" r="0.4896" /><circle class="dot" cx="23.80" cy="14.80" r="0.4896" /><circle class="dot" cx="8.80" cy="15.80" r="0.4896" /><circle class="dot" cx="9.80" cy="15.80" r="0.4896" /><circle class="dot" cx="10.80" cy="15.80" r="0.4896" /><circle class="dot" cx="11.80" cy="15.80" r="0.4896" /><circle class="dot" cx="21.80" cy="15.80" r="0.4896" /><circle class="dot" cx="22.80" cy="15.80" r="0.4896" /><circle class="dot" cx="23.80" cy="15.80" r="0.4896" /><circle class="dot" cx="21.80" cy="16.80" r="0.4896" /><circle class="dot" cx="22.80" cy="16.80" r="0.4896" /><circle class="dot" cx="23.80" cy="16.80" r="0.4896" /><circle class="dot" cx="20.80" cy="17.80" r="0.4896" /><circle class="dot" cx="21.80" cy="17.80" r="0.4896" /><circle class="dot" cx="22.80" cy="17.80" r="0.4896" /><circle class="dot" cx="23.80" cy="17.80" r="0.4896" /><circle class="dot" cx="24.80" cy="17.80" r="0.4896" /><circle class="dot" cx="20.80" cy="18.80" r="0.4896" /><circle class="dot" cx="21.80" cy="18.80" r="0.4896" /><circle class="dot" cx="22.80" cy="18.80" r="0.4896" /><circle class="dot" cx="23.80" cy="18.80" r="0.4896" /><circle class="dot" cx="24.80" cy="18.80" r="0.4896" /><circle class="dot" cx="25.80" cy="18.80" r="0.4896" /><circle class="dot" cx="21.80" cy="19.80" r="0.4896" /><circle class="dot" cx="22.80" cy="19.80" r="0.4896" /><circle class="dot" cx="23.80" cy="19.80" r="0.4896" /><circle class="dot" cx="24.80" cy="19.80" r="0.4896" /><circle class="dot" cx="25.80" cy="19.80" r="0.4896" /><circle class="dot" cx="26.80" cy="19.80" r="0.4896" /></g><g class="frame frame-2" aria-hidden="true"><circle class="dot" cx="14.80" cy="1.80" r="0.4896" /><circle class="dot" cx="15.80" cy="1.80" r="0.4896" /><circle class="dot" cx="16.80" cy="1.80" r="0.4896" /><circle class="dot" cx="15.80" cy="2.80" r="0.4896" /><circle class="dot" cx="16.80" cy="2.80" r="0.4896" /><circle class="dot" cx="17.80" cy="2.80" r="0.4896" /><circle class="dot" cx="14.80" cy="3.80" r="0.4896" /><circle class="dot" cx="15.80" cy="3.80" r="0.4896" /><circle class="dot" cx="16.80" cy="3.80" r="0.4896" /><circle class="dot" cx="17.80" cy="3.80" r="0.4896" /><circle class="dot" cx="14.80" cy="4.80" r="0.4896" /><circle class="dot" cx="15.80" cy="4.80" r="0.4896" /><circle class="dot" cx="16.80" cy="4.80" r="0.4896" /><circle class="dot" cx="17.80" cy="4.80" r="0.4896" /><circle class="dot" cx="15.80" cy="5.80" r="0.4896" /><circle class="dot" cx="16.80" cy="5.80" r="0.4896" /><circle class="dot" cx="17.80" cy="5.80" r="0.4896" /><circle class="dot" cx="14.80" cy="6.80" r="0.4896" /><circle class="dot" cx="15.80" cy="6.80" r="0.4896" /><circle class="dot" cx="16.80" cy="6.80" r="0.4896" /><circle class="dot" cx="17.80" cy="6.80" r="0.4896" /><circle class="dot" cx="18.80" cy="6.80" r="0.4896" /><circle class="dot" cx="13.80" cy="7.80" r="0.4896" /><circle class="dot" cx="14.80" cy="7.80" r="0.4896" /><circle class="dot" cx="15.80" cy="7.80" r="0.4896" /><circle class="dot" cx="16.80" cy="7.80" r="0.4896" /><circle class="dot" cx="17.80" cy="7.80" r="0.4896" /><circle class="dot" cx="18.80" cy="7.80" r="0.4896" /><circle class="dot" cx="20.80" cy="7.80" r="0.4896" /><circle class="dot" cx="21.80" cy="7.80" r="0.4896" /><circle class="dot" cx="12.80" cy="8.80" r="0.4896" /><circle class="dot" cx="13.80" cy="8.80" r="0.4896" /><circle class="dot" cx="14.80" cy="8.80" r="0.4896" /><circle class="dot" cx="15.80" cy="8.80" r="0.4896" /><circle class="dot" cx="16.80" cy="8.80" r="0.4896" /><circle class="dot" cx="17.80" cy="8.80" r="0.4896" /><circle class="dot" cx="18.80" cy="8.80" r="0.4896" /><circle class="dot" cx="19.80" cy="8.80" r="0.4896" /><circle class="dot" cx="20.80" cy="8.80" r="0.4896" /><circle class="dot" cx="21.80" cy="8.80" r="0.4896" /><circle class="dot" cx="12.80" cy="9.80" r="0.4896" /><circle class="dot" cx="13.80" cy="9.80" r="0.4896" /><circle class="dot" cx="15.80" cy="9.80" r="0.4896" /><circle class="dot" cx="16.80" cy="9.80" r="0.4896" /><circle class="dot" cx="17.80" cy="9.80" r="0.4896" /><circle class="dot" cx="18.80" cy="9.80" r="0.4896" /><circle class="dot" cx="19.80" cy="9.80" r="0.4896" /><circle class="dot" cx="20.80" cy="9.80" r="0.4896" /><circle class="dot" cx="13.80" cy="10.80" r="0.4896" /><circle class="dot" cx="14.80" cy="10.80" r="0.4896" /><circle class="dot" cx="15.80" cy="10.80" r="0.4896" /><circle class="dot" cx="16.80" cy="10.80" r="0.4896" /><circle class="dot" cx="17.80" cy="10.80" r="0.4896" /><circle class="dot" cx="18.80" cy="10.80" r="0.4896" /><circle class="dot" cx="14.80" cy="11.80" r="0.4896" /><circle class="dot" cx="15.80" cy="11.80" r="0.4896" /><circle class="dot" cx="16.80" cy="11.80" r="0.4896" /><circle class="dot" cx="17.80" cy="11.80" r="0.4896" /><circle class="dot" cx="18.80" cy="11.80" r="0.4896" /><circle class="dot" cx="15.80" cy="12.80" r="0.4896" /><circle class="dot" cx="16.80" cy="12.80" r="0.4896" /><circle class="dot" cx="17.80" cy="12.80" r="0.4896" /><circle class="dot" cx="18.80" cy="12.80" r="0.4896" /><circle class="dot" cx="19.80" cy="12.80" r="0.4896" /><circle class="dot" cx="15.80" cy="13.80" r="0.4896" /><circle class="dot" cx="16.80" cy="13.80" r="0.4896" /><circle class="dot" cx="17.80" cy="13.80" r="0.4896" /><circle class="dot" cx="18.80" cy="13.80" r="0.4896" /><circle class="dot" cx="19.80" cy="13.80" r="0.4896" /><circle class="dot" cx="14.80" cy="14.80" r="0.4896" /><circle class="dot" cx="15.80" cy="14.80" r="0.4896" /><circle class="dot" cx="16.80" cy="14.80" r="0.4896" /><circle class="dot" cx="17.80" cy="14.80" r="0.4896" /><circle class="dot" cx="18.80" cy="14.80" r="0.4896" /><circle class="dot" cx="19.80" cy="14.80" r="0.4896" /><circle class="dot" cx="20.80" cy="14.80" r="0.4896" /><circle class="dot" cx="13.80" cy="15.80" r="0.4896" /><circle class="dot" cx="14.80" cy="15.80" r="0.4896" /><circle class="dot" cx="15.80" cy="15.80" r="0.4896" /><circle class="dot" cx="16.80" cy="15.80" r="0.4896" /><circle class="dot" cx="18.80" cy="15.80" r="0.4896" /><circle class="dot" cx="19.80" cy="15.80" r="0.4896" /><circle class="dot" cx="20.80" cy="15.80" r="0.4896" /><circle class="dot" cx="12.80" cy="16.80" r="0.4896" /><circle class="dot" cx="13.80" cy="16.80" r="0.4896" /><circle class="dot" cx="14.80" cy="16.80" r="0.4896" /><circle class="dot" cx="15.80" cy="16.80" r="0.4896" /><circle class="dot" cx="18.80" cy="16.80" r="0.4896" /><circle class="dot" cx="19.80" cy="16.80" r="0.4896" /><circle class="dot" cx="20.80" cy="16.80" r="0.4896" /><circle class="dot" cx="13.80" cy="17.80" r="0.4896" /><circle class="dot" cx="14.80" cy="17.80" r="0.4896" /><circle class="dot" cx="15.80" cy="17.80" r="0.4896" /><circle class="dot" cx="17.80" cy="17.80" r="0.4896" /><circle class="dot" cx="18.80" cy="17.80" r="0.4896" /><circle class="dot" cx="19.80" cy="17.80" r="0.4896" /><circle class="dot" cx="20.80" cy="17.80" r="0.4896" /><circle class="dot" cx="14.80" cy="18.80" r="0.4896" /><circle class="dot" cx="15.80" cy="18.80" r="0.4896" /><circle class="dot" cx="17.80" cy="18.80" r="0.4896" /><circle class="dot" cx="18.80" cy="18.80" r="0.4896" /><circle class="dot" cx="19.80" cy="18.80" r="0.4896" /><circle class="dot" cx="20.80" cy="18.80" r="0.4896" /><circle class="dot" cx="21.80" cy="18.80" r="0.4896" /><circle class="dot" cx="15.80" cy="19.80" r="0.4896" /><circle class="dot" cx="18.80" cy="19.80" r="0.4896" /><circle class="dot" cx="19.80" cy="19.80" r="0.4896" /><circle class="dot" cx="20.80" cy="19.80" r="0.4896" /><circle class="dot" cx="21.80" cy="19.80" r="0.4896" /><circle class="dot" cx="22.80" cy="19.80" r="0.4896" /></g><g class="frame frame-3" aria-hidden="true"><circle class="dot" cx="14.80" cy="1.80" r="0.4896" /><circle class="dot" cx="15.80" cy="1.80" r="0.4896" /><circle class="dot" cx="16.80" cy="1.80" r="0.4896" /><circle class="dot" cx="15.80" cy="2.80" r="0.4896" /><circle class="dot" cx="16.80" cy="2.80" r="0.4896" /><circle class="dot" cx="17.80" cy="2.80" r="0.4896" /><circle class="dot" cx="14.80" cy="3.80" r="0.4896" /><circle class="dot" cx="15.80" cy="3.80" r="0.4896" /><circle class="dot" cx="16.80" cy="3.80" r="0.4896" /><circle class="dot" cx="17.80" cy="3.80" r="0.4896" /><circle class="dot" cx="14.80" cy="4.80" r="0.4896" /><circle class="dot" cx="15.80" cy="4.80" r="0.4896" /><circle class="dot" cx="16.80" cy="4.80" r="0.4896" /><circle class="dot" cx="17.80" cy="4.80" r="0.4896" /><circle class="dot" cx="15.80" cy="5.80" r="0.4896" /><circle class="dot" cx="16.80" cy="5.80" r="0.4896" /><circle class="dot" cx="17.80" cy="5.80" r="0.4896" /><circle class="dot" cx="14.80" cy="6.80" r="0.4896" /><circle class="dot" cx="15.80" cy="6.80" r="0.4896" /><circle class="dot" cx="16.80" cy="6.80" r="0.4896" /><circle class="dot" cx="17.80" cy="6.80" r="0.4896" /><circle class="dot" cx="18.80" cy="6.80" r="0.4896" /><circle class="dot" cx="14.80" cy="7.80" r="0.4896" /><circle class="dot" cx="15.80" cy="7.80" r="0.4896" /><circle class="dot" cx="16.80" cy="7.80" r="0.4896" /><circle class="dot" cx="17.80" cy="7.80" r="0.4896" /><circle class="dot" cx="18.80" cy="7.80" r="0.4896" /><circle class="dot" cx="13.80" cy="8.80" r="0.4896" /><circle class="dot" cx="14.80" cy="8.80" r="0.4896" /><circle class="dot" cx="15.80" cy="8.80" r="0.4896" /><circle class="dot" cx="16.80" cy="8.80" r="0.4896" /><circle class="dot" cx="17.80" cy="8.80" r="0.4896" /><circle class="dot" cx="18.80" cy="8.80" r="0.4896" /><circle class="dot" cx="13.80" cy="9.80" r="0.4896" /><circle class="dot" cx="14.80" cy="9.80" r="0.4896" /><circle class="dot" cx="15.80" cy="9.80" r="0.4896" /><circle class="dot" cx="16.80" cy="9.80" r="0.4896" /><circle class="dot" cx="17.80" cy="9.80" r="0.4896" /><circle class="dot" cx="18.80" cy="9.80" r="0.4896" /><circle class="dot" cx="19.80" cy="9.80" r="0.4896" /><circle class="dot" cx="20.80" cy="9.80" r="0.4896" /><circle class="dot" cx="14.80" cy="10.80" r="0.4896" /><circle class="dot" cx="15.80" cy="10.80" r="0.4896" /><circle class="dot" cx="16.80" cy="10.80" r="0.4896" /><circle class="dot" cx="17.80" cy="10.80" r="0.4896" /><circle class="dot" cx="18.80" cy="10.80" r="0.4896" /><circle class="dot" cx="19.80" cy="10.80" r="0.4896" /><circle class="dot" cx="20.80" cy="10.80" r="0.4896" /><circle class="dot" cx="15.80" cy="11.80" r="0.4896" /><circle class="dot" cx="16.80" cy="11.80" r="0.4896" /><circle class="dot" cx="17.80" cy="11.80" r="0.4896" /><circle class="dot" cx="18.80" cy="11.80" r="0.4896" /><circle class="dot" cx="15.80" cy="12.80" r="0.4896" /><circle class="dot" cx="16.80" cy="12.80" r="0.4896" /><circle class="dot" cx="17.80" cy="12.80" r="0.4896" /><circle class="dot" cx="18.80" cy="12.80" r="0.4896" /><circle class="dot" cx="19.80" cy="12.80" r="0.4896" /><circle class="dot" cx="16.80" cy="13.80" r="0.4896" /><circle class="dot" cx="17.80" cy="13.80" r="0.4896" /><circle class="dot" cx="18.80" cy="13.80" r="0.4896" /><circle class="dot" cx="19.80" cy="13.80" r="0.4896" /><circle class="dot" cx="17.80" cy="14.80" r="0.4896" /><circle class="dot" cx="18.80" cy="14.80" r="0.4896" /><circle class="dot" cx="19.80" cy="14.80" r="0.4896" /><circle class="dot" cx="20.80" cy="14.80" r="0.4896" /><circle class="dot" cx="16.80" cy="15.80" r="0.4896" /><circle class="dot" cx="17.80" cy="15.80" r="0.4896" /><circle class="dot" cx="18.80" cy="15.80" r="0.4896" /><circle class="dot" cx="19.80" cy="15.80" r="0.4896" /><circle class="dot" cx="20.80" cy="15.80" r="0.4896" /><circle class="dot" cx="15.80" cy="16.80" r="0.4896" /><circle class="dot" cx="16.80" cy="16.80" r="0.4896" /><circle class="dot" cx="17.80" cy="16.80" r="0.4896" /><circle class="dot" cx="18.80" cy="16.80" r="0.4896" /><circle class="dot" cx="19.80" cy="16.80" r="0.4896" /><circle class="dot" cx="14.80" cy="17.80" r="0.4896" /><circle class="dot" cx="15.80" cy="17.80" r="0.4896" /><circle class="dot" cx="16.80" cy="17.80" r="0.4896" /><circle class="dot" cx="17.80" cy="17.80" r="0.4896" /><circle class="dot" cx="18.80" cy="17.80" r="0.4896" /><circle class="dot" cx="14.80" cy="18.80" r="0.4896" /><circle class="dot" cx="15.80" cy="18.80" r="0.4896" /><circle class="dot" cx="16.80" cy="18.80" r="0.4896" /><circle class="dot" cx="17.80" cy="18.80" r="0.4896" /><circle class="dot" cx="18.80" cy="18.80" r="0.4896" /><circle class="dot" cx="19.80" cy="18.80" r="0.4896" /><circle class="dot" cx="14.80" cy="19.80" r="0.4896" /><circle class="dot" cx="15.80" cy="19.80" r="0.4896" /><circle class="dot" cx="17.80" cy="19.80" r="0.4896" /><circle class="dot" cx="18.80" cy="19.80" r="0.4896" /><circle class="dot" cx="19.80" cy="19.80" r="0.4896" /><circle class="dot" cx="20.80" cy="19.80" r="0.4896" /></g><g class="frame frame-4" aria-hidden="true"><circle class="dot" cx="13.80" cy="1.80" r="0.4896" /><circle class="dot" cx="14.80" cy="1.80" r="0.4896" /><circle class="dot" cx="15.80" cy="1.80" r="0.4896" /><circle class="dot" cx="16.80" cy="1.80" r="0.4896" /><circle class="dot" cx="15.80" cy="2.80" r="0.4896" /><circle class="dot" cx="16.80" cy="2.80" r="0.4896" /><circle class="dot" cx="17.80" cy="2.80" r="0.4896" /><circle class="dot" cx="14.80" cy="3.80" r="0.4896" /><circle class="dot" cx="15.80" cy="3.80" r="0.4896" /><circle class="dot" cx="16.80" cy="3.80" r="0.4896" /><circle class="dot" cx="17.80" cy="3.80" r="0.4896" /><circle class="dot" cx="13.80" cy="4.80" r="0.4896" /><circle class="dot" cx="14.80" cy="4.80" r="0.4896" /><circle class="dot" cx="15.80" cy="4.80" r="0.4896" /><circle class="dot" cx="16.80" cy="4.80" r="0.4896" /><circle class="dot" cx="17.80" cy="4.80" r="0.4896" /><circle class="dot" cx="15.80" cy="5.80" r="0.4896" /><circle class="dot" cx="16.80" cy="5.80" r="0.4896" /><circle class="dot" cx="17.80" cy="5.80" r="0.4896" /><circle class="dot" cx="14.80" cy="6.80" r="0.4896" /><circle class="dot" cx="15.80" cy="6.80" r="0.4896" /><circle class="dot" cx="16.80" cy="6.80" r="0.4896" /><circle class="dot" cx="17.80" cy="6.80" r="0.4896" /><circle class="dot" cx="18.80" cy="6.80" r="0.4896" /><circle class="dot" cx="13.80" cy="7.80" r="0.4896" /><circle class="dot" cx="14.80" cy="7.80" r="0.4896" /><circle class="dot" cx="15.80" cy="7.80" r="0.4896" /><circle class="dot" cx="16.80" cy="7.80" r="0.4896" /><circle class="dot" cx="17.80" cy="7.80" r="0.4896" /><circle class="dot" cx="18.80" cy="7.80" r="0.4896" /><circle class="dot" cx="20.80" cy="7.80" r="0.4896" /><circle class="dot" cx="21.80" cy="7.80" r="0.4896" /><circle class="dot" cx="12.80" cy="8.80" r="0.4896" /><circle class="dot" cx="13.80" cy="8.80" r="0.4896" /><circle class="dot" cx="14.80" cy="8.80" r="0.4896" /><circle class="dot" cx="15.80" cy="8.80" r="0.4896" /><circle class="dot" cx="16.80" cy="8.80" r="0.4896" /><circle class="dot" cx="17.80" cy="8.80" r="0.4896" /><circle class="dot" cx="18.80" cy="8.80" r="0.4896" /><circle class="dot" cx="19.80" cy="8.80" r="0.4896" /><circle class="dot" cx="20.80" cy="8.80" r="0.4896" /><circle class="dot" cx="21.80" cy="8.80" r="0.4896" /><circle class="dot" cx="12.80" cy="9.80" r="0.4896" /><circle class="dot" cx="13.80" cy="9.80" r="0.4896" /><circle class="dot" cx="15.80" cy="9.80" r="0.4896" /><circle class="dot" cx="16.80" cy="9.80" r="0.4896" /><circle class="dot" cx="17.80" cy="9.80" r="0.4896" /><circle class="dot" cx="18.80" cy="9.80" r="0.4896" /><circle class="dot" cx="19.80" cy="9.80" r="0.4896" /><circle class="dot" cx="20.80" cy="9.80" r="0.4896" /><circle class="dot" cx="13.80" cy="10.80" r="0.4896" /><circle class="dot" cx="14.80" cy="10.80" r="0.4896" /><circle class="dot" cx="15.80" cy="10.80" r="0.4896" /><circle class="dot" cx="16.80" cy="10.80" r="0.4896" /><circle class="dot" cx="17.80" cy="10.80" r="0.4896" /><circle class="dot" cx="18.80" cy="10.80" r="0.4896" /><circle class="dot" cx="14.80" cy="11.80" r="0.4896" /><circle class="dot" cx="15.80" cy="11.80" r="0.4896" /><circle class="dot" cx="16.80" cy="11.80" r="0.4896" /><circle class="dot" cx="17.80" cy="11.80" r="0.4896" /><circle class="dot" cx="18.80" cy="11.80" r="0.4896" /><circle class="dot" cx="15.80" cy="12.80" r="0.4896" /><circle class="dot" cx="16.80" cy="12.80" r="0.4896" /><circle class="dot" cx="17.80" cy="12.80" r="0.4896" /><circle class="dot" cx="18.80" cy="12.80" r="0.4896" /><circle class="dot" cx="19.80" cy="12.80" r="0.4896" /><circle class="dot" cx="15.80" cy="13.80" r="0.4896" /><circle class="dot" cx="16.80" cy="13.80" r="0.4896" /><circle class="dot" cx="17.80" cy="13.80" r="0.4896" /><circle class="dot" cx="18.80" cy="13.80" r="0.4896" /><circle class="dot" cx="19.80" cy="13.80" r="0.4896" /><circle class="dot" cx="14.80" cy="14.80" r="0.4896" /><circle class="dot" cx="15.80" cy="14.80" r="0.4896" /><circle class="dot" cx="16.80" cy="14.80" r="0.4896" /><circle class="dot" cx="17.80" cy="14.80" r="0.4896" /><circle class="dot" cx="18.80" cy="14.80" r="0.4896" /><circle class="dot" cx="19.80" cy="14.80" r="0.4896" /><circle class="dot" cx="20.80" cy="14.80" r="0.4896" /><circle class="dot" cx="13.80" cy="15.80" r="0.4896" /><circle class="dot" cx="14.80" cy="15.80" r="0.4896" /><circle class="dot" cx="15.80" cy="15.80" r="0.4896" /><circle class="dot" cx="16.80" cy="15.80" r="0.4896" /><circle class="dot" cx="18.80" cy="15.80" r="0.4896" /><circle class="dot" cx="19.80" cy="15.80" r="0.4896" /><circle class="dot" cx="20.80" cy="15.80" r="0.4896" /><circle class="dot" cx="12.80" cy="16.80" r="0.4896" /><circle class="dot" cx="13.80" cy="16.80" r="0.4896" /><circle class="dot" cx="14.80" cy="16.80" r="0.4896" /><circle class="dot" cx="15.80" cy="16.80" r="0.4896" /><circle class="dot" cx="18.80" cy="16.80" r="0.4896" /><circle class="dot" cx="19.80" cy="16.80" r="0.4896" /><circle class="dot" cx="20.80" cy="16.80" r="0.4896" /><circle class="dot" cx="13.80" cy="17.80" r="0.4896" /><circle class="dot" cx="14.80" cy="17.80" r="0.4896" /><circle class="dot" cx="15.80" cy="17.80" r="0.4896" /><circle class="dot" cx="17.80" cy="17.80" r="0.4896" /><circle class="dot" cx="18.80" cy="17.80" r="0.4896" /><circle class="dot" cx="19.80" cy="17.80" r="0.4896" /><circle class="dot" cx="20.80" cy="17.80" r="0.4896" /><circle class="dot" cx="14.80" cy="18.80" r="0.4896" /><circle class="dot" cx="15.80" cy="18.80" r="0.4896" /><circle class="dot" cx="17.80" cy="18.80" r="0.4896" /><circle class="dot" cx="18.80" cy="18.80" r="0.4896" /><circle class="dot" cx="19.80" cy="18.80" r="0.4896" /><circle class="dot" cx="20.80" cy="18.80" r="0.4896" /><circle class="dot" cx="21.80" cy="18.80" r="0.4896" /><circle class="dot" cx="15.80" cy="19.80" r="0.4896" /><circle class="dot" cx="18.80" cy="19.80" r="0.4896" /><circle class="dot" cx="19.80" cy="19.80" r="0.4896" /><circle class="dot" cx="20.80" cy="19.80" r="0.4896" /><circle class="dot" cx="21.80" cy="19.80" r="0.4896" /><circle class="dot" cx="22.80" cy="19.80" r="0.4896" /></g><g class="frame frame-5" aria-hidden="true"><circle class="dot" cx="14.80" cy="0.80" r="0.4896" /><circle class="dot" cx="15.80" cy="0.80" r="0.4896" /><circle class="dot" cx="16.80" cy="0.80" r="0.4896" /><circle class="dot" cx="13.80" cy="1.80" r="0.4896" /><circle class="dot" cx="15.80" cy="1.80" r="0.4896" /><circle class="dot" cx="16.80" cy="1.80" r="0.4896" /><circle class="dot" cx="17.80" cy="1.80" r="0.4896" /><circle class="dot" cx="14.80" cy="2.80" r="0.4896" /><circle class="dot" cx="15.80" cy="2.80" r="0.4896" /><circle class="dot" cx="16.80" cy="2.80" r="0.4896" /><circle class="dot" cx="17.80" cy="2.80" r="0.4896" /><circle class="dot" cx="12.80" cy="3.80" r="0.4896" /><circle class="dot" cx="14.80" cy="3.80" r="0.4896" /><circle class="dot" cx="15.80" cy="3.80" r="0.4896" /><circle class="dot" cx="16.80" cy="3.80" r="0.4896" /><circle class="dot" cx="17.80" cy="3.80" r="0.4896" /><circle class="dot" cx="18.80" cy="3.80" r="0.4896" /><circle class="dot" cx="13.80" cy="4.80" r="0.4896" /><circle class="dot" cx="14.80" cy="4.80" r="0.4896" /><circle class="dot" cx="15.80" cy="4.80" r="0.4896" /><circle class="dot" cx="16.80" cy="4.80" r="0.4896" /><circle class="dot" cx="17.80" cy="4.80" r="0.4896" /><circle class="dot" cx="18.80" cy="4.80" r="0.4896" /><circle class="dot" cx="19.80" cy="4.80" r="0.4896" /><circle class="dot" cx="12.80" cy="5.80" r="0.4896" /><circle class="dot" cx="13.80" cy="5.80" r="0.4896" /><circle class="dot" cx="14.80" cy="5.80" r="0.4896" /><circle class="dot" cx="15.80" cy="5.80" r="0.4896" /><circle class="dot" cx="16.80" cy="5.80" r="0.4896" /><circle class="dot" cx="17.80" cy="5.80" r="0.4896" /><circle class="dot" cx="18.80" cy="5.80" r="0.4896" /><circle class="dot" cx="19.80" cy="5.80" r="0.4896" /><circle class="dot" cx="20.80" cy="5.80" r="0.4896" /><circle class="dot" cx="21.80" cy="5.80" r="0.4896" /><circle class="dot" cx="12.80" cy="6.80" r="0.4896" /><circle class="dot" cx="13.80" cy="6.80" r="0.4896" /><circle class="dot" cx="15.80" cy="6.80" r="0.4896" /><circle class="dot" cx="16.80" cy="6.80" r="0.4896" /><circle class="dot" cx="17.80" cy="6.80" r="0.4896" /><circle class="dot" cx="19.80" cy="6.80" r="0.4896" /><circle class="dot" cx="20.80" cy="6.80" r="0.4896" /><circle class="dot" cx="21.80" cy="6.80" r="0.4896" /><circle class="dot" cx="12.80" cy="7.80" r="0.4896" /><circle class="dot" cx="13.80" cy="7.80" r="0.4896" /><circle class="dot" cx="14.80" cy="7.80" r="0.4896" /><circle class="dot" cx="15.80" cy="7.80" r="0.4896" /><circle class="dot" cx="16.80" cy="7.80" r="0.4896" /><circle class="dot" cx="17.80" cy="7.80" r="0.4896" /><circle class="dot" cx="13.80" cy="8.80" r="0.4896" /><circle class="dot" cx="14.80" cy="8.80" r="0.4896" /><circle class="dot" cx="15.80" cy="8.80" r="0.4896" /><circle class="dot" cx="16.80" cy="8.80" r="0.4896" /><circle class="dot" cx="17.80" cy="8.80" r="0.4896" /><circle class="dot" cx="18.80" cy="8.80" r="0.4896" /><circle class="dot" cx="14.80" cy="9.80" r="0.4896" /><circle class="dot" cx="15.80" cy="9.80" r="0.4896" /><circle class="dot" cx="16.80" cy="9.80" r="0.4896" /><circle class="dot" cx="17.80" cy="9.80" r="0.4896" /><circle class="dot" cx="18.80" cy="9.80" r="0.4896" /><circle class="dot" cx="14.80" cy="10.80" r="0.4896" /><circle class="dot" cx="15.80" cy="10.80" r="0.4896" /><circle class="dot" cx="16.80" cy="10.80" r="0.4896" /><circle class="dot" cx="17.80" cy="10.80" r="0.4896" /><circle class="dot" cx="18.80" cy="10.80" r="0.4896" /><circle class="dot" cx="19.80" cy="10.80" r="0.4896" /><circle class="dot" cx="20.80" cy="10.80" r="0.4896" /><circle class="dot" cx="14.80" cy="11.80" r="0.4896" /><circle class="dot" cx="15.80" cy="11.80" r="0.4896" /><circle class="dot" cx="16.80" cy="11.80" r="0.4896" /><circle class="dot" cx="17.80" cy="11.80" r="0.4896" /><circle class="dot" cx="18.80" cy="11.80" r="0.4896" /><circle class="dot" cx="19.80" cy="11.80" r="0.4896" /><circle class="dot" cx="20.80" cy="11.80" r="0.4896" /><circle class="dot" cx="21.80" cy="11.80" r="0.4896" /><circle class="dot" cx="22.80" cy="11.80" r="0.4896" /><circle class="dot" cx="13.80" cy="12.80" r="0.4896" /><circle class="dot" cx="14.80" cy="12.80" r="0.4896" /><circle class="dot" cx="15.80" cy="12.80" r="0.4896" /><circle class="dot" cx="16.80" cy="12.80" r="0.4896" /><circle class="dot" cx="17.80" cy="12.80" r="0.4896" /><circle class="dot" cx="18.80" cy="12.80" r="0.4896" /><circle class="dot" cx="19.80" cy="12.80" r="0.4896" /><circle class="dot" cx="20.80" cy="12.80" r="0.4896" /><circle class="dot" cx="21.80" cy="12.80" r="0.4896" /><circle class="dot" cx="22.80" cy="12.80" r="0.4896" /><circle class="dot" cx="12.80" cy="13.80" r="0.4896" /><circle class="dot" cx="13.80" cy="13.80" r="0.4896" /><circle class="dot" cx="14.80" cy="13.80" r="0.4896" /><circle class="dot" cx="15.80" cy="13.80" r="0.4896" /><circle class="dot" cx="20.80" cy="13.80" r="0.4896" /><circle class="dot" cx="21.80" cy="13.80" r="0.4896" /><circle class="dot" cx="22.80" cy="13.80" r="0.4896" /><circle class="dot" cx="8.80" cy="14.80" r="0.4896" /><circle class="dot" cx="9.80" cy="14.80" r="0.4896" /><circle class="dot" cx="11.80" cy="14.80" r="0.4896" /><circle class="dot" cx="12.80" cy="14.80" r="0.4896" /><circle class="dot" cx="13.80" cy="14.80" r="0.4896" /><circle class="dot" cx="14.80" cy="14.80" r="0.4896" /><circle class="dot" cx="19.80" cy="14.80" r="0.4896" /><circle class="dot" cx="20.80" cy="14.80" r="0.4896" /><circle class="dot" cx="21.80" cy="14.80" r="0.4896" /><circle class="dot" cx="7.80" cy="15.80" r="0.4896" /><circle class="dot" cx="8.80" cy="15.80" r="0.4896" /><circle class="dot" cx="9.80" cy="15.80" r="0.4896" /><circle class="dot" cx="10.80" cy="15.80" r="0.4896" /><circle class="dot" cx="11.80" cy="15.80" r="0.4896" /><circle class="dot" cx="12.80" cy="15.80" r="0.4896" /><circle class="dot" cx="13.80" cy="15.80" r="0.4896" /><circle class="dot" cx="18.80" cy="15.80" r="0.4896" /><circle class="dot" cx="19.80" cy="15.80" r="0.4896" /><circle class="dot" cx="20.80" cy="15.80" r="0.4896" /><circle class="dot" cx="21.80" cy="15.80" r="0.4896" /><circle class="dot" cx="7.80" cy="16.80" r="0.4896" /><circle class="dot" cx="8.80" cy="16.80" r="0.4896" /><circle class="dot" cx="9.80" cy="16.80" r="0.4896" /><circle class="dot" cx="10.80" cy="16.80" r="0.4896" /><circle class="dot" cx="11.80" cy="16.80" r="0.4896" /><circle class="dot" cx="12.80" cy="16.80" r="0.4896" /><circle class="dot" cx="19.80" cy="16.80" r="0.4896" /><circle class="dot" cx="20.80" cy="16.80" r="0.4896" /><circle class="dot" cx="21.80" cy="16.80" r="0.4896" /><circle class="dot" cx="7.80" cy="17.80" r="0.4896" /><circle class="dot" cx="8.80" cy="17.80" r="0.4896" /><circle class="dot" cx="9.80" cy="17.80" r="0.4896" /><circle class="dot" cx="20.80" cy="17.80" r="0.4896" /><circle class="dot" cx="21.80" cy="17.80" r="0.4896" /><circle class="dot" cx="7.80" cy="18.80" r="0.4896" /><circle class="dot" cx="8.80" cy="18.80" r="0.4896" /></g>
</svg>
