<?xml version="1.0" encoding="UTF-8"?>
<svg xmlns="http://www.w3.org/2000/svg" viewBox="0 0 32.6 20.6" role="img" aria-label="Remix runner">
  <style>
    .dot { fill: #ffffff; }
  </style>
  <g><circle class="dot" cx="14.80" cy="0.80" r="0.4896" /><circle class="dot" cx="15.80" cy="0.80" r="0.4896" /><circle class="dot" cx="16.80" cy="0.80" r="0.4896" /><circle class="dot" cx="12.80" cy="1.80" r="0.4896" /><circle class="dot" cx="15.80" cy="1.80" r="0.4896" /><circle class="dot" cx="16.80" cy="1.80" r="0.4896" /><circle class="dot" cx="17.80" cy="1.80" r="0.4896" /><circle class="dot" cx="14.80" cy="2.80" r="0.4896" /><circle class="dot" cx="15.80" cy="2.80" r="0.4896" /><circle class="dot" cx="16.80" cy="2.80" r="0.4896" /><circle class="dot" cx="17.80" cy="2.80" r="0.4896" /><circle class="dot" cx="22.80" cy="2.80" r="0.4896" /><circle class="dot" cx="23.80" cy="2.80" r="0.4896" /><circle class="dot" cx="9.80" cy="3.80" r="0.4896" /><circle class="dot" cx="12.80" cy="3.80" r="0.4896" /><circle class="dot" cx="13.80" cy="3.80" r="0.4896" /><circle class="dot" cx="14.80" cy="3.80" r="0.4896" /><circle class="dot" cx="15.80" cy="3.80" r="0.4896" /><circle class="dot" cx="16.80" cy="3.80" r="0.4896" /><circle class="dot" cx="17.80" cy="3.80" r="0.4896" /><circle class="dot" cx="18.80" cy="3.80" r="0.4896" /><circle class="dot" cx="19.80" cy="3.80" r="0.4896" /><circle class="dot" cx="21.80" cy="3.80" r="0.4896" /><circle class="dot" cx="22.80" cy="3.80" r="0.4896" /><circle class="dot" cx="23.80" cy="3.80" r="0.4896" /><circle class="dot" cx="11.80" cy="4.80" r="0.4896" /><circle class="dot" cx="12.80" cy="4.80" r="0.4896" /><circle class="dot" cx="13.80" cy="4.80" r="0.4896" /><circle class="dot" cx="14.80" cy="4.80" r="0.4896" /><circle class="dot" cx="15.80" cy="4.80" r="0.4896" /><circle class="dot" cx="16.80" cy="4.80" r="0.4896" /><circle class="dot" cx="17.80" cy="4.80" r="0.4896" /><circle class="dot" cx="18.80" cy="4.80" r="0.4896" /><circle class="dot" cx="19.80" cy="4.80" r="0.4896" /><circle class="dot" cx="20.80" cy="4.80" r="0.4896" /><circle class="dot" cx="21.80" cy="4.80" r="0.4896" /><circle class="dot" cx="22.80" cy="4.80" r="0.4896" /><circle class="dot" cx="10.80" cy="5.80" r="0.4896" /><circle class="dot" cx="11.80" cy="5.80" r="0.4896" /><circle class="dot" cx="12.80" cy="5.80" r="0.4896" /><circle class="dot" cx="14.80" cy="5.80" r="0.4896" /><circle class="dot" cx="15.80" cy="5.80" r="0.4896" /><circle class="dot" cx="16.80" cy="5.80" r="0.4896" /><circle class="dot" cx="17.80" cy="5.80" r="0.4896" /><circle class="dot" cx="18.80" cy="5.80" r="0.4896" /><circle class="dot" cx="19.80" cy="5.80" r="0.4896" /><circle class="dot" cx="20.80" cy="5.80" r="0.4896" /><circle class="dot" cx="11.80" cy="6.80" r="0.4896" /><circle class="dot" cx="12.80" cy="6.80" r="0.4896" /><circle class="dot" cx="13.80" cy="6.80" r="0.4896" /><circle class="dot" cx="14.80" cy="6.80" r="0.4896" /><circle class="dot" cx="15.80" cy="6.80" r="0.4896" /><circle class="dot" cx="16.80" cy="6.80" r="0.4896" /><circle class="dot" cx="17.80" cy="6.80" r="0.4896" /><circle class="dot" cx="12.80" cy="7.80" r="0.4896" /><circle class="dot" cx="13.80" cy="7.80" r="0.4896" /><circle class="dot" cx="14.80" cy="7.80" r="0.4896" /><circle class="dot" cx="15.80" cy="7.80" r="0.4896" /><circle class="dot" cx="16.80" cy="7.80" r="0.4896" /><circle class="dot" cx="17.80" cy="7.80" r="0.4896" /><circle class="dot" cx="18.80" cy="7.80" r="0.4896" /><circle class="dot" cx="19.80" cy="7.80" r="0.4896" /><circle class="dot" cx="13.80" cy="8.80" r="0.4896" /><circle class="dot" cx="14.80" cy="8.80" r="0.4896" /><circle class="dot" cx="15.80" cy="8.80" r="0.4896" /><circle class="dot" cx="16.80" cy="8.80" r="0.4896" /><circle class="dot" cx="17.80" cy="8.80" r="0.4896" /><circle class="dot" cx="18.80" cy="8.80" r="0.4896" /><circle class="dot" cx="19.80" cy="8.80" r="0.4896" /><circle class="dot" cx="20.80" cy="8.80" r="0.4896" /><circle class="dot" cx="13.80" cy="9.80" r="0.4896" /><circle class="dot" cx="14.80" cy="9.80" r="0.4896" /><circle class="dot" cx="15.80" cy="9.80" r="0.4896" /><circle class="dot" cx="16.80" cy="9.80" r="0.4896" /><circle class="dot" cx="17.80" cy="9.80" r="0.4896" /><circle class="dot" cx="18.80" cy="9.80" r="0.4896" /><circle class="dot" cx="19.80" cy="9.80" r="0.4896" /><circle class="dot" cx="20.80" cy="9.80" r="0.4896" /><circle class="dot" cx="21.80" cy="9.80" r="0.4896" /><circle class="dot" cx="22.80" cy="9.80" r="0.4896" /><circle class="dot" cx="2.80" cy="10.80" r="0.4896" /><circle class="dot" cx="12.80" cy="10.80" r="0.4896" /><circle class="dot" cx="13.80" cy="10.80" r="0.4896" /><circle class="dot" cx="14.80" cy="10.80" r="0.4896" /><circle class="dot" cx="15.80" cy="10.80" r="0.4896" /><circle class="dot" cx="16.80" cy="10.80" r="0.4896" /><circle class="dot" cx="19.80" cy="10.80" r="0.4896" /><circle class="dot" cx="20.80" cy="10.80" r="0.4896" /><circle class="dot" cx="21.80" cy="10.80" r="0.4896" /><circle class="dot" cx="22.80" cy="10.80" r="0.4896" /><circle class="dot" cx="23.80" cy="10.80" r="0.4896" /><circle class="dot" cx="24.80" cy="10.80" r="0.4896" /><circle class="dot" cx="1.80" cy="11.80" r="0.4896" /><circle class="dot" cx="2.80" cy="11.80" r="0.4896" /><circle class="dot" cx="3.80" cy="11.80" r="0.4896" /><circle class="dot" cx="4.80" cy="11.80" r="0.4896" /><circle class="dot" cx="5.80" cy="11.80" r="0.4896" /><circle class="dot" cx="6.80" cy="11.80" r="0.4896" /><circle class="dot" cx="11.80" cy="11.80" r="0.4896" /><circle class="dot" cx="12.80" cy="11.80" r="0.4896" /><circle class="dot" cx="13.80" cy="11.80" r="0.4896" /><circle class="dot" cx="14.80" cy="11.80" r="0.4896" /><circle class="dot" cx="15.80" cy="11.80" r="0.4896" /><circle class="dot" cx="21.80" cy="11.80" r="0.4896" /><circle class="dot" cx="22.80" cy="11.80" r="0.4896" /><circle class="dot" cx="23.80" cy="11.80" r="0.4896" /><circle class="dot" cx="24.80" cy="11.80" r="0.4896" /><circle class="dot" cx="25.80" cy="11.80" r="0.4896" /><circle class="dot" cx="0.80" cy="12.80" r="0.4896" /><circle class="dot" cx="1.80" cy="12.80" r="0.4896" /><circle class="dot" cx="2.80" cy="12.80" r="0.4896" /><circle class="dot" cx="3.80" cy="12.80" r="0.4896" /><circle class="dot" cx="4.80" cy="12.80" r="0.4896" /><circle class="dot" cx="5.80" cy="12.80" r="0.4896" /><circle class="dot" cx="6.80" cy="12.80" r="0.4896" /><circle class="dot" cx="7.80" cy="12.80" r="0.4896" /><circle class="dot" cx="8.80" cy="12.80" r="0.4896" /><circle class="dot" cx="9.80" cy="12.80" r="0.4896" /><circle class="dot" cx="10.80" cy="12.80" r="0.4896" /><circle class="dot" cx="11.80" cy="12.80" r="0.4896" /><circle class="dot" cx="12.80" cy="12.80" r="0.4896" /><circle class="dot" cx="13.80" cy="12.80" r="0.4896" /><circle class="dot" cx="23.80" cy="12.80" r="0.4896" /><circle class="dot" cx="24.80" cy="12.80" r="0.4896" /><circle class="dot" cx="25.80" cy="12.80" r="0.4896" /><circle class="dot" cx="26.80" cy="12.80" r="0.4896" /><circle class="dot" cx="0.80" cy="13.80" r="0.4896" /><circle class="dot" cx="1.80" cy="13.80" r="0.4896" /><circle class="dot" cx="2.80" cy="13.80" r="0.4896" /><circle class="dot" cx="3.80" cy="13.80" r="0.4896" /><circle class="dot" cx="4.80" cy="13.80" r="0.4896" /><circle class="dot" cx="5.80" cy="13.80" r="0.4896" /><circle class="dot" cx="6.80" cy="13.80" r="0.4896" /><circle class="dot" cx="7.80" cy="13.80" r="0.4896" /><circle class="dot" cx="8.80" cy="13.80" r="0.4896" /><circle class="dot" cx="9.80" cy="13.80" r="0.4896" /><circle class="dot" cx="10.80" cy="13.80" r="0.4896" /><circle class="dot" cx="11.80" cy="13.80" r="0.4896" /><circle class="dot" cx="12.80" cy="13.80" r="0.4896" /><circle class="dot" cx="23.80" cy="13.80" r="0.4896" /><circle class="dot" cx="24.80" cy="13.80" r="0.4896" /><circle class="dot" cx="25.80" cy="13.80" r="0.4896" /><circle class="dot" cx="26.80" cy="13.80" r="0.4896" /><circle class="dot" cx="27.80" cy="13.80" r="0.4896" /><circle class="dot" cx="0.80" cy="14.80" r="0.4896" /><circle class="dot" cx="1.80" cy="14.80" r="0.4896" /><circle class="dot" cx="4.80" cy="14.80" r="0.4896" /><circle class="dot" cx="5.80" cy="14.80" r="0.4896" /><circle class="dot" cx="6.80" cy="14.80" r="0.4896" /><circle class="dot" cx="7.80" cy="14.80" r="0.4896" /><circle class="dot" cx="8.80" cy="14.80" r="0.4896" /><circle class="dot" cx="9.80" cy="14.80" r="0.4896" /><circle class="dot" cx="10.80" cy="14.80" r="0.4896" /><circle class="dot" cx="11.80" cy="14.80" r="0.4896" /><circle class="dot" cx="24.80" cy="14.80" r="0.4896" /><circle class="dot" cx="25.80" cy="14.80" r="0.4896" /><circle class="dot" cx="26.80" cy="14.80" r="0.4896" /><circle class="dot" cx="27.80" cy="14.80" r="0.4896" /><circle class="dot" cx="28.80" cy="14.80" r="0.4896" /><circle class="dot" cx="30.80" cy="14.80" r="0.4896" /><circle class="dot" cx="31.80" cy="14.80" r="0.4896" /><circle class="dot" cx="0.80" cy="15.80" r="0.4896" /><circle class="dot" cx="1.80" cy="15.80" r="0.4896" /><circle class="dot" cx="25.80" cy="15.80" r="0.4896" /><circle class="dot" cx="26.80" cy="15.80" r="0.4896" /><circle class="dot" cx="27.80" cy="15.80" r="0.4896" /><circle class="dot" cx="28.80" cy="15.80" r="0.4896" /><circle class="dot" cx="29.80" cy="15.80" r="0.4896" /><circle class="dot" cx="30.80" cy="15.80" r="0.4896" /><circle class="dot" cx="31.80" cy="15.80" r="0.4896" /><circle class="dot" cx="26.80" cy="16.80" r="0.4896" /><circle class="dot" cx="27.80" cy="16.80" r="0.4896" /><circle class="dot" cx="28.80" cy="16.80" r="0.4896" /><circle class="dot" cx="29.80" cy="16.80" r="0.4896" /><circle class="dot" cx="30.80" cy="16.80" r="0.4896" /><circle class="dot" cx="26.80" cy="17.80" r="0.4896" /><circle class="dot" cx="27.80" cy="17.80" r="0.4896" /><circle class="dot" cx="28.80" cy="17.80" r="0.4896" /><circle class="dot" cx="29.80" cy="17.80" r="0.4896" /><circle class="dot" cx="27.80" cy="18.80" r="0.4896" /><circle class="dot" cx="28.80" cy="18.80" r="0.4896" /></g>
</svg>
