<svg xmlns="http://www.w3.org/2000/svg" version="1.1" xmlns:xlink="http://www.w3.org/1999/xlink" xmlns:svgjs="http://svgjs.dev/svgjs" width="180" height="180"><svg id="SvgjsSvg1001" xmlns="http://www.w3.org/2000/svg" viewBox="0 0 180 180"><path d="M159.22,137.36c1.57,20.18,1.57,29.64,1.57,39.97h-46.7c0-2.25.04-4.31.08-6.39.13-6.49.26-13.25-.79-26.91-1.39-20-10-24.44-25.84-24.44H14.11v-36.38h75.67c20,0,30-6.08,30-22.19,0-14.16-10-22.75-30-22.75H14.11V2.67h84c45.28,0,67.78,21.39,67.78,55.55,0,25.55-15.83,42.21-37.23,44.99,18.06,3.61,28.61,13.89,30.56,34.16ZM14.11,177.33v-28.08h49.38c8.25,0,10.04,7.07,10.04,10.72v17.36H14.11Z"></path></svg><style>@media (prefers-color-scheme: light) { :root { filter: none; } }
@media (prefers-color-scheme: dark) { :root { filter: none; } }
</style></svg>