<?xml version="1.0" encoding="UTF-8"?>
<svg id="Layer_2" xmlns="http://www.w3.org/2000/svg" viewBox="0 0 174.5 174.5">
  <g id="Layer_1-2" data-name="Layer_1">
    <g>
      <path d="M87.25,0C39.14,0,0,39.14,0,87.25s39.14,87.25,87.25,87.25,87.25-39.14,87.25-87.25S135.36,0,87.25,0ZM87.25,156.25c-38.05,0-69-30.95-69-69S49.2,18.25,87.25,18.25s69,30.95,69,69-30.95,69-69,69Z"/>
      <path d="M125.76,110.22c.77,9.9.77,14.54.77,19.6h-22.9c0-1.1.02-2.11.04-3.14.06-3.18.13-6.5-.39-13.2-.68-9.81-4.9-11.99-12.67-11.99h-36.02v-17.84h37.11c9.81,0,14.71-2.98,14.71-10.88,0-6.95-4.9-11.16-14.71-11.16h-37.11v-17.46h41.2c22.21,0,33.24,10.49,33.24,27.24,0,12.53-7.77,20.7-18.26,22.07,8.86,1.77,14.03,6.81,14.99,16.75ZM54.59,129.83v-13.93h24.22c4.04,0,4.92,3,4.92,4.79v9.14h-29.14Z"/>
    </g>
  </g>
</svg>