<svg width="144" height="144" viewBox="0 0 144 144" fill="none" xmlns="http://www.w3.org/2000/svg">
<rect width="144" height="144" rx="72" fill="black"/>
<g clip-path="url(#clip0_2055_3109)">
<path d="M72 0C32.2989 0 0 32.2989 0 72C0 111.701 32.2989 144 72 144C111.701 144 144 111.701 144 72C144 32.2989 111.701 0 72 0ZM72 128.94C40.6006 128.94 15.0602 103.399 15.0602 72C15.0602 40.6006 40.6006 15.0602 72 15.0602C103.399 15.0602 128.94 40.6006 128.94 72C128.94 103.399 103.399 128.94 72 128.94Z" fill="white"/>
<path d="M103.779 90.9551C104.415 99.1247 104.415 102.954 104.415 107.129H85.5174C85.5174 106.222 85.5339 105.388 85.5504 104.538C85.5999 101.914 85.6577 99.1742 85.2285 93.6453C84.6674 85.5499 81.185 83.7509 74.7731 83.7509H45.0488V69.0291H75.6726C83.7679 69.0291 87.8115 66.57 87.8115 60.0508C87.8115 54.3155 83.7679 50.8414 75.6726 50.8414H45.0488V36.4331H79.0477C97.3757 36.4331 106.478 45.0896 106.478 58.912C106.478 69.2519 100.066 75.9939 91.4094 77.1245C98.7208 78.5851 102.987 82.7442 103.779 90.9468V90.9551ZM45.0488 107.138V95.6423H65.0355C68.3694 95.6423 69.0956 98.1179 69.0956 99.5951V107.138H45.0488Z" fill="white"/>
</g>
<defs>
<clipPath id="clip0_2055_3109">
<rect width="144" height="144" fill="white"/>
</clipPath>
</defs>
</svg>
