<?xml version="1.0" encoding="UTF-8"?>
<svg xmlns="http://www.w3.org/2000/svg" xmlns:xlink="http://www.w3.org/1999/xlink" width="0" height="0">
<defs>
<symbol viewBox="0 0 24 24" id="youtube"><path d="M10 15l5.19-3L10 9v6m11.56-7.83c.13.47.22 1.1.28 1.9.07.8.1 1.49.1 2.09L22 12c0 2.19-.16 3.8-.44 4.83-.25.9-.83 1.48-1.73 1.73-.47.13-1.33.22-2.65.28-1.3.07-2.49.1-3.59.1L12 19c-4.19 0-6.8-.16-7.83-.44-.9-.25-1.48-.83-1.73-1.73-.13-.47-.22-1.1-.28-1.9-.07-.8-.1-1.49-.1-2.09L2 12c0-2.19.16-3.8.44-4.83.25-.9.83-1.48 1.73-1.73.47-.13 1.33-.22 2.65-.28 1.3-.07 2.49-.1 3.59-.1L12 5c4.19 0 6.8.16 7.83.44.9.25 1.48.83 1.73 1.73z"></path></symbol>
<symbol viewBox="0 0 24 24" fill="none" id="x">
<path d="M18 6L6 18M18 18L6 6" stroke="currentColor" stroke-width="2" stroke-linecap="round"></path>
</symbol>
<symbol viewBox="0 0 24 24" id="twitter"><path d="M22.46 6c-.77.35-1.6.58-2.46.69.88-.53 1.56-1.37 1.88-2.38-.83.5-1.75.85-2.72 1.05C18.37 4.5 17.26 4 16 4c-2.35 0-4.27 1.92-4.27 4.29 0 .34.04.67.11.98C8.28 9.09 5.11 7.38 3 4.79c-.37.63-.58 1.37-.58 2.15 0 1.49.75 2.81 1.91 3.56-.71 0-1.37-.2-1.95-.5v.03c0 2.08 1.48 3.82 3.44 4.21a4.22 4.22 0 0 1-1.93.07 4.28 4.28 0 0 0 4 2.98 8.521 8.521 0 0 1-5.33 1.84c-.34 0-.68-.02-1.02-.06C3.44 20.29 5.7 21 8.12 21 16 21 20.33 14.46 20.33 8.79c0-.19 0-.37-.01-.56.84-.6 1.56-1.36 2.14-2.23z"></path></symbol>
<symbol viewBox="0 0 24 24" fill="none" id="trash">
<path d="M4 6.17647H20M10 16.7647V10.4118M14 16.7647V10.4118M16 21H8C6.89543 21 6 20.0519 6 18.8824V7.23529C6 6.65052 6.44772 6.17647 7 6.17647H17C17.5523 6.17647 18 6.65052 18 7.23529V18.8824C18 20.0519 17.1046 21 16 21ZM10 6.17647H14C14.5523 6.17647 15 5.70242 15 5.11765V4.05882C15 3.47405 14.5523 3 14 3H10C9.44772 3 9 3.47405 9 4.05882V5.11765C9 5.70242 9.44772 6.17647 10 6.17647Z" stroke="currentColor" stroke-width="2" stroke-linecap="round" stroke-linejoin="round"></path>
</symbol>
<symbol viewBox="0 0 24 24" fill="none" id="tag">
<path d="M16.354 7.65287L16.3476 7.65284M19.5226 2.85178L13.7222 2.4056C13.2079 2.36604 12.7021 2.55317 12.3374 2.91788L2.91751 12.3377C2.22753 13.0277 2.22753 14.1464 2.9175 14.8364L9.16405 21.0829C9.85402 21.7729 10.9727 21.7729 11.6627 21.0829L21.0825 11.663C21.4472 11.2983 21.6344 10.7925 21.5948 10.2782L21.1486 4.47786C21.0818 3.60899 20.3914 2.91862 19.5226 2.85178Z" stroke="currentColor" stroke-width="2" stroke-linecap="round" stroke-linejoin="round"></path>
</symbol>
<symbol viewBox="0 0 26 26" fill="none" id="sun">
<path d="M13.0006 2.73677V1.97656M13.0006 24.0227V23.2624M23.2634 12.9996H24.0236M1.97754 12.9996H2.73775M20.2582 5.74278L20.7957 5.20523M5.20541 20.794L5.74295 20.2565M20.2582 20.2564L20.7957 20.794M5.20541 5.20517L5.74295 5.74272M19.0674 12.958C19.0674 16.3169 16.3446 19.0397 12.9857 19.0397C9.62692 19.0397 6.90406 16.3169 6.90406 12.958C6.90406 9.59922 9.62692 6.87635 12.9857 6.87635C16.3446 6.87635 19.0674 9.59922 19.0674 12.958Z" stroke="currentColor" stroke-width="2" stroke-linecap="round"></path>
</symbol>
<symbol viewBox="0 0 100 24" fill="none" id="shop-pay">
<mask id="mask0_10_2299" style="mask-type:luminance" maskUnits="userSpaceOnUse" x="0" y="0" width="100" height="24">
<path d="M99.9113 0.00561523H0V24.0001H99.9113V0.00561523Z" fill="white"></path>
</mask>
<g mask="url(#mask0_10_2299)">
<path d="M25.5959 7.5492C24.7947 5.86821 23.2756 4.78235 20.9863 4.78235C20.2837 4.79459 19.5932 4.9681 18.9682 5.28938C18.3433 5.61071 17.8004 6.07129 17.3816 6.6356L17.2981 6.73739V0.149179C17.2981 0.111103 17.283 0.0745898 17.256 0.047667C17.2291 0.0207435 17.1926 0.00561523 17.1545 0.00561523H13.9178C13.8802 0.00629938 13.8444 0.0217253 13.818 0.0485747C13.7916 0.0754241 13.7769 0.111551 13.7769 0.149179V19.0473C13.7769 19.0847 13.7917 19.1205 13.8182 19.1469C13.8446 19.1734 13.8804 19.1882 13.9178 19.1882H17.3842C17.4218 19.1882 17.458 19.1735 17.4848 19.1471C17.5117 19.1207 17.5271 19.0849 17.5278 19.0473V10.9895C17.5278 9.42335 18.5719 8.31398 20.2424 8.31398C22.0696 8.31398 22.5316 9.81749 22.5316 11.3497V19.0473C22.5316 19.0847 22.5464 19.1205 22.5729 19.1469C22.5993 19.1734 22.6352 19.1882 22.6725 19.1882H26.131C26.1687 19.1882 26.2049 19.1735 26.2317 19.1471C26.2585 19.1207 26.2741 19.0849 26.2747 19.0473V10.8903C26.2747 10.611 26.2747 10.3369 26.2382 10.0707C26.1787 9.19821 25.9611 8.34379 25.5959 7.5492Z" fill="white"></path>
<path d="M8.28759 10.3501C8.28759 10.3501 6.52307 9.9351 5.87313 9.76805C5.22316 9.601 4.08771 9.246 4.08771 8.38723C4.08771 7.52846 5.0039 7.25437 5.93316 7.25437C6.8624 7.25437 7.89607 7.47886 7.97698 8.50991C7.98024 8.54708 7.99735 8.58161 8.02489 8.60679C8.05245 8.63193 8.08844 8.64577 8.12575 8.64565L11.5425 8.6326C11.5627 8.63264 11.5826 8.62855 11.601 8.62056C11.6194 8.61258 11.636 8.60087 11.6498 8.58615C11.6635 8.57148 11.674 8.5541 11.6807 8.53514C11.6874 8.51616 11.6902 8.49603 11.6887 8.47596C11.4773 5.17665 8.58253 3.99683 5.91226 3.99683C2.74604 3.99683 0.430778 6.08501 0.430778 8.38723C0.430778 10.0682 0.905842 11.6448 4.64107 12.7411C5.29625 12.9317 6.18635 13.1796 6.96421 13.3963C7.89866 13.6573 8.40243 14.0515 8.40243 14.6727C8.40243 15.3931 7.35835 15.8943 6.33253 15.8943C4.84731 15.8943 3.79276 15.3435 3.70662 14.3542C3.70213 14.318 3.68452 14.2847 3.65707 14.2606C3.62965 14.2366 3.59433 14.2234 3.55783 14.2237L0.148873 14.2394C0.128887 14.2394 0.109107 14.2434 0.0907066 14.2512C0.0723067 14.259 0.055667 14.2704 0.0417806 14.2848C0.0278944 14.2991 0.0170441 14.3162 0.00988161 14.3348C0.00271915 14.3535 -0.000609607 14.3734 9.16476e-05 14.3934C0.156706 17.5074 3.1637 19.1857 5.96711 19.1857C10.1435 19.1857 12.0307 16.8366 12.0307 14.6361C12.0359 13.6025 11.7983 11.248 8.28759 10.3501Z" fill="white"></path>
<path d="M52.2439 4.77716C50.5083 4.77716 49.0542 5.73771 48.1171 6.8967V4.91289C48.1171 4.87596 48.1026 4.84048 48.0766 4.81414C48.0512 4.78778 48.0158 4.77262 47.9787 4.77197H44.737C44.6997 4.77197 44.6636 4.78678 44.6373 4.81321C44.6109 4.83967 44.5958 4.87554 44.5958 4.91289V23.4456C44.5968 23.4824 44.612 23.5178 44.6384 23.5435C44.6648 23.5694 44.7002 23.584 44.737 23.584H48.206C48.2426 23.584 48.2778 23.5694 48.3037 23.5435C48.3296 23.5175 48.3442 23.4821 48.3442 23.4456V17.3533H48.3965C48.9471 18.1937 50.4533 19.2013 52.4216 19.2013C56.1225 19.2013 59.2081 16.1317 59.2081 11.984C59.2108 8.00343 56.1411 4.77716 52.2439 4.77716ZM51.9229 15.6697C51.1925 15.6878 50.4725 15.4878 49.8562 15.0953C49.2398 14.7027 48.754 14.1353 48.4613 13.4656C48.1687 12.7958 48.0822 12.054 48.2132 11.3349C48.3437 10.6158 48.686 9.95192 49.1956 9.42811C49.7055 8.90423 50.3598 8.54416 51.0751 8.39382C51.7903 8.24348 52.5341 8.30965 53.2115 8.58392C53.8892 8.85818 54.4694 9.32811 54.8788 9.93371C55.288 10.5393 55.5074 11.2531 55.5095 11.984C55.5169 12.4618 55.4298 12.9364 55.2537 13.3805C55.0776 13.8246 54.8152 14.2295 54.4819 14.572C54.1488 14.9145 53.7512 15.1877 53.3117 15.3761C52.8727 15.5645 52.4008 15.6642 51.9229 15.6697Z" fill="white"></path>
<path d="M34.33 3.96289C31.0959 3.96289 29.4828 5.0618 28.1879 5.94147L28.1488 5.96755C28.0821 6.01324 28.0351 6.08248 28.0171 6.16136C27.9993 6.24025 28.0117 6.32297 28.0522 6.39302L29.3312 8.59602C29.3552 8.63727 29.3881 8.6727 29.4272 8.69975C29.4666 8.72683 29.5112 8.74491 29.5584 8.75266C29.6045 8.76097 29.6517 8.75896 29.6968 8.74676C29.742 8.73456 29.7839 8.71255 29.8195 8.68217L29.9211 8.59866C30.5867 8.04007 31.6543 7.29352 34.2386 7.08993C35.6767 6.97511 36.9193 7.35096 37.8353 8.20712C38.843 9.13638 39.4461 10.6373 39.4461 12.2217C39.4461 15.1373 37.7284 16.9697 34.9694 17.0062C32.6958 16.9932 31.1688 15.8081 31.1688 14.0567C31.1688 13.1274 31.5891 12.5218 32.4088 11.9163C32.4713 11.8715 32.5155 11.8056 32.5333 11.7308C32.5512 11.6559 32.5412 11.5772 32.5053 11.5091L31.3567 9.33734C31.3356 9.29848 31.3069 9.26418 31.2725 9.23641C31.238 9.20864 31.1984 9.18795 31.1558 9.17552C31.1123 9.16258 31.0667 9.15893 31.0218 9.16473C30.9767 9.17059 30.9334 9.18582 30.8948 9.20947C29.6054 9.97425 28.0236 11.3733 28.1096 14.0619C28.214 17.4839 31.0593 20.0967 34.7579 20.2038H34.9433H35.1965C39.5919 20.0602 42.7661 16.7974 42.7661 12.3731C42.7661 8.31152 39.806 3.96289 34.33 3.96289Z" fill="white"></path>
<path d="M72.8779 6.05103H70.6746C70.6232 6.0517 70.5737 6.07255 70.5371 6.10909C70.5003 6.14566 70.4795 6.19507 70.4792 6.2468V10.8695C70.4795 10.921 70.5005 10.9701 70.5373 11.0062C70.5739 11.0424 70.6232 11.0627 70.6746 11.0627H72.8779C74.2195 11.0627 75.2089 10.0055 75.2089 8.55684C75.2089 7.10816 74.2195 6.05103 72.8779 6.05103Z" fill="white"></path>
<path d="M79.6462 14.2289C79.6462 14.8998 80.2126 15.273 81.1992 15.273C82.5408 15.273 83.3342 14.5474 83.3342 13.2605V12.8899L81.3246 12.9943C80.2646 13.0465 79.6462 13.4876 79.6462 14.2289Z" fill="white"></path>
<path d="M95.96 0.0473864H66.3599C65.8746 0.0473859 65.3934 0.143076 64.9451 0.328984C64.4963 0.514893 64.0888 0.787379 63.7458 1.13087C63.4023 1.47436 63.1302 1.88212 62.9446 2.33086C62.7587 2.77959 62.6636 3.2605 62.6641 3.7461V19.9504C62.6641 20.9309 63.0533 21.8713 63.7465 22.5649C64.4396 23.2584 65.3797 23.6484 66.3599 23.6491H95.96C96.4462 23.6505 96.928 23.556 97.3777 23.3711C97.8272 23.1862 98.2359 22.9143 98.5805 22.5714C98.9247 22.2283 99.1984 21.8207 99.3854 21.3719C99.5722 20.923 99.6685 20.4418 99.6694 19.9556V3.75131C99.6701 3.26418 99.575 2.78163 99.3889 2.33144C99.2029 1.88126 98.9295 1.4723 98.5849 1.12808C98.2403 0.783866 97.8309 0.511187 97.3805 0.325723C96.9301 0.140258 96.4474 0.0456649 95.96 0.0473864ZM72.9898 12.8819H70.6616C70.6097 12.8819 70.5602 12.9025 70.5232 12.9392C70.4866 12.976 70.4658 13.0258 70.4658 13.0777V16.3927C70.4658 16.4446 70.4452 16.4944 70.4086 16.5311C70.3718 16.5678 70.3221 16.5884 70.2702 16.5884H68.6307C68.5794 16.5878 68.5296 16.5669 68.493 16.5303C68.4565 16.4938 68.4361 16.4444 68.4352 16.3927V4.43518C68.4352 4.38329 68.4558 4.33348 68.4928 4.29676C68.5294 4.26005 68.5789 4.23943 68.6307 4.23943H72.9898C75.4593 4.23943 77.2263 6.03788 77.2263 8.56197C77.2263 11.0861 75.4722 12.8871 73.0033 12.8871L72.9898 12.8819ZM85.2581 16.3901C85.2585 16.416 85.2539 16.4417 85.244 16.4658C85.2342 16.4898 85.2199 16.5117 85.2018 16.5302C85.1833 16.5486 85.1618 16.5633 85.1377 16.5733C85.1141 16.5833 85.0882 16.5884 85.0623 16.5884H83.5144C83.4885 16.5884 83.4628 16.5833 83.439 16.5733C83.4149 16.5633 83.3932 16.5486 83.3751 16.5302C83.3571 16.5117 83.3425 16.4898 83.333 16.4658C83.3233 16.4417 83.3184 16.416 83.3189 16.3901V16.0325C83.3212 16.0011 83.3138 15.9697 83.2969 15.943C83.2805 15.9163 83.2557 15.8957 83.2261 15.8842C83.1969 15.8728 83.1647 15.8712 83.1344 15.8795C83.1036 15.8879 83.077 15.9058 83.0578 15.9307C82.5956 16.4344 81.8439 16.7999 80.6458 16.7999C78.8815 16.7999 77.7144 15.8811 77.7144 14.294C77.6975 13.9071 77.7773 13.522 77.947 13.1737C78.1164 12.8255 78.3705 12.5251 78.6857 12.2998C79.3224 11.8222 80.309 11.5742 81.7733 11.5168L83.3263 11.4646V11.0103C83.3263 10.0942 82.7104 9.70525 81.721 9.70525C80.7319 9.70525 80.1079 10.055 79.9621 10.6267C79.9503 10.667 79.9255 10.7023 79.8913 10.727C79.8575 10.7516 79.8161 10.764 79.774 10.7624H78.2418C78.2136 10.7631 78.1856 10.7576 78.1597 10.7463C78.1342 10.7351 78.1108 10.7182 78.0921 10.6971C78.0736 10.6759 78.0597 10.651 78.0518 10.6239C78.0437 10.5969 78.0416 10.5684 78.046 10.5405C78.2759 9.1832 79.3981 8.15215 81.7919 8.15215C84.3342 8.15215 85.2502 9.3346 85.2502 11.5924L85.2581 16.3901ZM94.9004 8.63242L91.455 17.8231C90.6719 19.9582 89.3013 20.5064 87.8004 20.5064C87.5178 20.5133 87.2355 20.479 86.9626 20.4046C86.92 20.3932 86.8828 20.3681 86.8555 20.3331C86.8288 20.2983 86.8143 20.2555 86.8138 20.2114V18.815C86.8138 18.7857 86.82 18.7569 86.8323 18.7304C86.8448 18.7039 86.8626 18.6805 86.8851 18.6618C86.9078 18.6431 86.9339 18.6296 86.9622 18.6222C86.9904 18.6149 87.02 18.6138 87.0487 18.6192C87.2855 18.6641 87.5257 18.6868 87.7666 18.6871C88.1816 18.7079 88.5917 18.5888 88.9312 18.3488C89.2703 18.1089 89.5193 17.762 89.638 17.3637L89.7401 17.0426C89.7558 16.9997 89.7558 16.9525 89.7401 16.9095L86.5187 8.63506C86.509 8.60548 86.5062 8.57396 86.5109 8.54314C86.5157 8.51228 86.5275 8.48296 86.5451 8.45755C86.5634 8.43214 86.5872 8.41133 86.6148 8.3968C86.6423 8.38229 86.6731 8.37446 86.7041 8.37402H88.2705C88.3105 8.37442 88.3494 8.38678 88.3825 8.4096C88.4156 8.43237 88.441 8.46454 88.4556 8.50194L90.6432 14.3384C90.6577 14.3765 90.6832 14.4094 90.7168 14.4326C90.7505 14.4558 90.7901 14.4681 90.8311 14.4681C90.8716 14.4681 90.9119 14.4558 90.9452 14.4326C90.9787 14.4094 91.0047 14.3765 91.0188 14.3384L92.9168 8.51761C92.9293 8.47792 92.9545 8.44334 92.9883 8.41892C93.0221 8.39448 93.0626 8.3815 93.1043 8.38187H94.71C94.7407 8.38173 94.7713 8.38895 94.7993 8.40279C94.8268 8.41668 94.8511 8.43686 94.8697 8.46174C94.8882 8.48662 94.9004 8.51548 94.9058 8.54605C94.9113 8.57658 94.9095 8.60796 94.9004 8.63765V8.63242Z" fill="white"></path>
</g>
</symbol>
<symbol viewBox="0 0 24 24" fill="none" id="plus">
<path d="M12 6.5L12 18.5M18 12.5L6 12.5" stroke="currentColor" stroke-width="2" stroke-linecap="round"></path>
</symbol>
<symbol viewBox="0 0 24 24" fill="none" id="moon">
<path d="M21.6001 14.6396C20.6978 14.9132 19.7405 15.0603 18.7488 15.0603C13.3308 15.0603 8.93868 10.6682 8.93868 5.25018C8.93868 4.25896 9.08569 3.30208 9.35909 2.40015C5.33166 3.62153 2.40015 7.36319 2.40015 11.7895C2.40015 17.2075 6.7923 21.5997 12.2103 21.5997C16.6371 21.5997 20.379 18.6676 21.6001 14.6396Z" stroke="currentColor" stroke-width="2" stroke-linejoin="round"></path>
</symbol>
<symbol viewBox="0 0 24 24" fill="none" id="minus">
<path d="M19.2 12.5L4.79999 12.5" stroke="currentColor" stroke-width="2" stroke-linecap="round"></path>
</symbol>
<symbol viewBox="0 0 24 24" fill="none" id="menu">
  <path d="M20 18H4M20 12H4M20 6H4" stroke="currentColor" stroke-width="2" stroke-linecap="round"></path>
</symbol>
<symbol viewBox="0 0 24 24" id="mail">
<path d="M20 4H4c-1.1 0-1.99.9-1.99 2L2 18c0 1.1.9 2 2 2h16c1.1 0 2-.9 2-2V6c0-1.1-.9-2-2-2zm-.4 4.25l-7.07 4.42c-.32.2-.74.2-1.06 0L4.4 8.25c-.25-.16-.4-.43-.4-.72 0-.67.73-1.07 1.3-.72L12 11l6.7-4.19c.57-.35 1.3.05 1.3.72 0 .29-.15.56-.4.72z"></path>
</symbol>
<symbol viewBox="0 0 24 24" fill="none" id="info">
<path d="M12 12L12 16.5M12 8.66455V8.625M3 12C3 7.02944 7.02944 3 12 3C16.9706 3 21 7.02944 21 12C21 16.9706 16.9706 21 12 21C7.02944 21 3 16.9706 3 12Z" stroke="currentColor" stroke-width="2" stroke-linecap="round" stroke-linejoin="round"></path>
</symbol>
<symbol viewBox="0 0 24 24" fill="none" id="globe">
<path d="M12 21C16.9706 21 21 16.9706 21 12C21 7.02944 16.9706 3 12 3M12 21C7.02944 21 3 16.9706 3 12C3 7.02944 7.02944 3 12 3M12 21C9.82538 21 8.0625 16.9706 8.0625 12C8.0625 7.02944 9.82538 3 12 3M12 21C14.1746 21 15.9375 16.9706 15.9375 12C15.9375 7.02944 14.1746 3 12 3M4.6875 16.3744C6.33632 15.4302 9.07573 14.8125 12.1764 14.8125C15.4124 14.8125 18.255 15.4854 19.875 16.5M4.6875 7.62558C6.33632 8.56975 9.07573 9.1875 12.1764 9.1875C15.4124 9.1875 18.255 8.5146 19.875 7.5" stroke="currentColor" stroke-width="2"></path>
</symbol>
<symbol viewBox="0 0 24 24" id="github"><path d="M12 .3a12 12 0 0 0-3.8 23.4c.6.1.8-.3.8-.6v-2c-3.3.7-4-1.6-4-1.6-.6-1.4-1.4-1.8-1.4-1.8-1-.7.1-.7.1-.7 1.2 0 1.9 1.2 1.9 1.2 1 1.8 2.8 1.3 3.5 1 0-.8.4-1.3.7-1.6-2.7-.3-5.5-1.3-5.5-6 0-1.2.5-2.3 1.3-3.1-.2-.4-.6-1.6 0-3.2 0 0 1-.3 3.4 1.2a11.5 11.5 0 0 1 6 0c2.3-1.5 3.3-1.2 3.3-1.2.6 1.6.2 2.8 0 3.2.9.8 1.3 1.9 1.3 3.2 0 4.6-2.8 5.6-5.5 5.9.5.4.9 1 .9 2.2v3.3c0 .3.1.7.8.6A12 12 0 0 0 12 .3"></path></symbol>
<symbol viewBox="0 0 24 24" fill="none" id="filter">
<path d="M2.40002 4.80002L12 4.80002M2.40002 12H12M12 12V14.4M12 12V9.60002M2.40002 19.2H7.20002M12 19.2L21.6 19.2M16.8 12H21.6M16.8 4.80002L21.6 4.80003M16.8 4.80002V7.20002M16.8 4.80002V2.40002M7.80002 21.6V16.8" stroke="currentColor" stroke-width="2" stroke-linecap="round" stroke-linejoin="round"></path>
</symbol>
<symbol viewBox="0 0 24 24" id="fast-forward">
<path d="M4.55 16.96l6.2-4.13c.59-.4.59-1.27 0-1.66l-6.2-4.13C3.89 6.59 3 7.07 3 7.87v8.26c0 .8.89 1.28 1.55.83zM13 7.87v8.26c0 .8.89 1.28 1.55.83l6.2-4.13c.59-.4.59-1.27 0-1.66l-6.2-4.13c-.66-.45-1.55.03-1.55.83z"></path>
</symbol>
<symbol viewBox="0 0 126.644 96" id="discord"><path d="M81.15,0c-1.2376,2.1973-2.3489,4.4704-3.3591,6.794-9.5975-1.4396-19.3718-1.4396-28.9945,0-.985-2.3236-2.1216-4.5967-3.3591-6.794-9.0166,1.5407-17.8059,4.2431-26.1405,8.0568C2.779,32.5304-1.6914,56.3725.5312,79.8863c9.6732,7.1476,20.5083,12.603,32.0505,16.0884,2.6014-3.4854,4.8998-7.1981,6.8698-11.0623-3.738-1.3891-7.3497-3.1318-10.8098-5.1523.9092-.6567,1.7932-1.3386,2.6519-1.9953,20.281,9.547,43.7696,9.547,64.0758,0,.8587.7072,1.7427,1.3891,2.6519,1.9953-3.4601,2.0457-7.0718,3.7632-10.835,5.1776,1.97,3.8642,4.2683,7.5769,6.8698,11.0623,11.5419-3.4854,22.3769-8.9156,32.0509-16.0631,2.626-27.2771-4.496-50.9172-18.817-71.8548C98.9811,4.2684,90.1918,1.5659,81.1752.0505l-.0252-.0505ZM42.2802,65.4144c-6.2383,0-11.4159-5.6575-11.4159-12.6535s4.9755-12.6788,11.3907-12.6788,11.5169,5.708,11.4159,12.6788c-.101,6.9708-5.026,12.6535-11.3907,12.6535ZM84.3576,65.4144c-6.2637,0-11.3907-5.6575-11.3907-12.6535s4.9755-12.6788,11.3907-12.6788,11.4917,5.708,11.3906,12.6788c-.101,6.9708-5.026,12.6535-11.3906,12.6535Z"></path></symbol>
<symbol viewBox="0 0 24 24" fill="none" id="computer">
<path d="M12.0004 16.7996V19.1996M8.40039 20.3996H15.6004M4.80039 16.7996H19.2004C20.5259 16.7996 21.6004 15.7251 21.6004 14.3996V5.99961C21.6004 4.67413 20.5259 3.59961 19.2004 3.59961H4.80039C3.47491 3.59961 2.40039 4.67413 2.40039 5.99961V14.3996C2.40039 15.7251 3.47491 16.7996 4.80039 16.7996Z" stroke="currentColor" stroke-width="2" stroke-linecap="round" stroke-linejoin="round"></path>
</symbol>
<symbol viewBox="0 0 24 24" fill="none" id="circle-check">
<path d="M15.142 9.98299L10.875 14.25L9.42049 12.7955M12 3C7.02944 3 3 7.02944 3 12C3 16.9706 7.02944 21 12 21C16.9706 21 21 16.9706 21 12C21 7.02944 16.9706 3 12 3Z" stroke="currentColor" stroke-width="2" stroke-linecap="round" stroke-linejoin="round"></path>
</symbol>
<symbol viewBox="0 0 24 24" fill="none" id="chevron-up">
<path d="M7 14.5834L12.0008 10L17 14.5834" stroke="currentColor" stroke-width="2" stroke-linecap="round" stroke-linejoin="round"></path>
</symbol>
<symbol viewBox="0 0 24 24" fill="none" id="chevron-right">
<path d="M10 7L15 12L10 17" stroke="currentColor" stroke-width="2" stroke-linecap="round" stroke-linejoin="round"></path>
</symbol>
<symbol viewBox="0 0 24 24" fill="none" id="chevron-left">
<path d="M15 17L10 12L15 7" stroke="currentColor" stroke-width="2" stroke-linecap="round" stroke-linejoin="round"></path>
</symbol>
<symbol viewBox="0 0 24 24" fill="none" id="chevron-down">
<path d="M7 10L12.0008 14.58L17 10" stroke="currentColor" stroke-width="2" stroke-linecap="round" stroke-linejoin="round"></path>
</symbol>
<symbol viewBox="0 0 24 24" id="check"><path fill="currentColor" d="M18 6.7l-8.48 8.48-3.54-3.54a.9959.9959 0 0 0-1.41 0c-.39.39-.39 1.02 0 1.41l4.24 4.24c.39.39 1.02.39 1.41 0l9.18-9.18c.39-.39.39-1.03-.01-1.42-.37-.38-1-.38-1.39.01z"></path></symbol>
<symbol viewBox="0 0 24 24" id="cart">
  <path d="M15.55 13c1.22 0 1.74-1.01 1.75-1.03l3.55-6.44c.23-.45.18-.84-.01-1.11-.18-.26-.51-.42-.84-.42H5.21l-.67-1.43c-.16-.35-.52-.57-.9-.57H2c-.55 0-1 .45-1 1s.45 1 1 1h1l3.6 7.59-1.35 2.44C4.52 15.37 5.48 17 7 17h11c.55 0 1-.45 1-1s-.45-1-1-1H7l1.1-2h7.45z"></path>
  <circle cx="7" cy="20" r="2"></circle>
  <circle cx="17" cy="20" r="2"></circle>
</symbol>
<symbol viewBox="0 0 24 24" fill="none" id="bag">
<path d="M15.5999 8.3998V5.39981C15.5999 3.41158 13.9881 1.7998 11.9999 1.7998C10.0117 1.7998 8.3999 3.41158 8.3999 5.3998V8.3998M4.72717 22.1998H19.2726C20.5579 22.1998 21.5999 21.1772 21.5999 19.9158L20.109 7.79977C20.109 6.53835 19.067 5.51576 17.7817 5.51576H5.92717C4.64186 5.51576 3.5999 6.53835 3.5999 7.79977L2.3999 19.9158C2.3999 21.1772 3.44186 22.1998 4.72717 22.1998Z" stroke="currentColor" stroke-width="2" stroke-linecap="round" stroke-linejoin="round"></path>
</symbol>
</defs>
</svg>