<svg xmlns="http://www.w3.org/2000/svg">
  <symbol id="bag" fill="none" viewBox="0 0 24 24">
    <path stroke="currentColor" stroke-linecap="round" stroke-linejoin="round" stroke-width="2" d="M15.6 8.4v-3a3.6 3.6 0 0 0-7.2 0v3M4.727 22.2h14.546c1.285 0 2.327-1.023 2.327-2.284L20.109 7.8c0-1.262-1.042-2.284-2.327-2.284H5.927C4.642 5.516 3.6 6.538 3.6 7.8L2.4 19.916c0 1.261 1.042 2.284 2.327 2.284" />
  </symbol>
  <symbol id="check" fill="none" viewBox="0 0 24 24">
    <path stroke="currentColor" stroke-linecap="round" stroke-linejoin="round" stroke-width="2" d="m15.142 9.983-4.267 4.267-1.455-1.454M12 3a9 9 0 1 0 0 18 9 9 0 0 0 0-18" />
  </symbol>
  <symbol id="chevron-down" fill="none" viewBox="0 0 24 24">
    <path stroke="currentColor" stroke-linecap="round" stroke-linejoin="round" stroke-width="2" d="m7 10 5 4.58L17 10" />
  </symbol>
  <symbol id="chevron-up" fill="none" viewBox="0 0 24 24">
    <path stroke="currentColor" stroke-linecap="round" stroke-linejoin="round" stroke-width="2" d="M7 14.583 12 10l5 4.583" />
  </symbol>
    <svg id='computer' fill="none" viewBox="0 0 24 24" >
    <path  stroke="currentColor" stroke-width="2" stroke-linecap="round" stroke-linejoin="round" d="M12.0004 16.7996V19.1996M8.40039 20.3996H15.6004M4.80039 16.7996H19.2004C20.5259 16.7996 21.6004 15.7251 21.6004 14.3996V5.99961C21.6004 4.67413 20.5259 3.59961 19.2004 3.59961H4.80039C3.47491 3.59961 2.40039 4.67413 2.40039 5.99961V14.3996C2.40039 15.7251 3.47491 16.7996 4.80039 16.7996Z"/>
  </svg>
  <symbol id="filter" fill="none" viewBox="0 0 24 24">
    <path stroke="currentColor" stroke-linecap="round" stroke-linejoin="round" stroke-width="2" d="M2.4 4.8H12M2.4 12H12m0 0v2.4m0-2.4V9.6m-9.6 9.6h4.8m4.8 0h9.6M16.8 12h4.8m-4.8-7.2h4.8m-4.8 0v2.4m0-2.4V2.4m-9 19.2v-4.8" />
  </symbol>
  <symbol id="globe" fill="none" viewBox="0 0 24 24">
    <path stroke="currentColor" stroke-width="2" d="M12 21a9 9 0 1 0 0-18m0 18a9 9 0 1 1 0-18m0 18c-2.175 0-3.937-4.03-3.937-9S9.825 3 12 3m0 18c2.175 0 3.938-4.03 3.938-9S14.175 3 12 3M4.688 16.374c1.648-.944 4.388-1.561 7.488-1.561 3.236 0 6.079.672 7.699 1.687M4.688 7.626c1.648.944 4.388 1.561 7.488 1.561 3.236 0 6.079-.672 7.699-1.687" />
  </symbol>
  <symbol id="info" fill="none" viewBox="0 0 24 24">
    <path stroke="currentColor" stroke-linecap="round" stroke-linejoin="round" stroke-width="2" d="M12 12v4.5m0-7.835v-.04M3 12a9 9 0 1 1 18 0 9 9 0 0 1-18 0" />
  </symbol>
  <symbol id="minus" fill="none" viewBox="0 0 24 24">
    <path stroke="currentColor" stroke-linecap="round" stroke-width="2" d="M19.2 12.5H4.8" />
  </symbol>
  <symbol id="moon" fill="none" viewBox="0 0 24 24">
    <path stroke="currentColor" stroke-linejoin="round" stroke-width="2" d="M21.6 14.64c-.902.273-1.86.42-2.851.42-5.418 0-9.81-4.392-9.81-9.81 0-.991.147-1.948.42-2.85C5.332 3.622 2.4 7.363 2.4 11.79c0 5.418 4.392 9.81 9.81 9.81 4.427 0 8.169-2.932 9.39-6.96Z" />
  </symbol>
  <symbol id="plus" fill="none" viewBox="0 0 24 24">
    <path stroke="currentColor" stroke-linecap="round" stroke-width="2" d="M12 6.5v12m6-6H6" />
  </symbol>
    <symbol id='sun' fill="none" viewBox="0 0 26 26" >
    <path stroke="currentColor" stroke-width="2" stroke-linecap="round" d="M13.0003 2.73677V1.97656M13.0003 24.0227V23.2624M23.2632 12.9996H24.0234M1.97729 12.9996H2.73751M20.2579 5.74278L20.7955 5.20523M5.20516 20.794L5.74271 20.2565M20.2579 20.2564L20.7955 20.794M5.20516 5.20517L5.74271 5.74272M19.0672 12.958C19.0672 16.3169 16.3443 19.0397 12.9855 19.0397C9.62667 19.0397 6.90381 16.3169 6.90381 12.958C6.90381 9.59922 9.62667 6.87635 12.9855 6.87635C16.3443 6.87635 19.0672 9.59922 19.0672 12.958Z" />
  </symbol>
  <symbol id="tag" fill="none" viewBox="0 0 24 24">
    <path stroke="currentColor" stroke-linecap="round" stroke-linejoin="round" stroke-width="2" d="M16.354 7.653h-.006m3.175-4.801-5.8-.446a1.77 1.77 0 0 0-1.386.512l-9.42 9.42c-.69.69-.69 1.808 0 2.498l6.247 6.247c.69.69 1.809.69 2.499 0l9.42-9.42c.364-.365.551-.87.512-1.385l-.446-5.8a1.77 1.77 0 0 0-1.626-1.626" />
  </symbol>
  <symbol id="trash" fill="none" viewBox="0 0 24 24">
    <path stroke="currentColor" stroke-linecap="round" stroke-linejoin="round" stroke-width="2" d="M4 6.176h16M10 16.765v-6.353m4 6.353v-6.353M16 21H8c-1.105 0-2-.948-2-2.118V7.235c0-.584.448-1.059 1-1.059h10c.552 0 1 .475 1 1.06v11.646c0 1.17-.895 2.118-2 2.118M10 6.176h4c.552 0 1-.474 1-1.058v-1.06C15 3.475 14.552 3 14 3h-4c-.552 0-1 .474-1 1.059v1.059c0 .584.448 1.058 1 1.058" />
  </symbol>
  <symbol id="x" fill="none" viewBox="0 0 24 24">
    <path stroke="currentColor" stroke-linecap="round" stroke-width="2" d="M18 6 6 18m12 0L6 6" />
  </symbol>
</svg>